;TYPE=PLATED
;Layer: PTH_Through
;EasyEDA Pro v2.2.46.11, 2026-02-14 09:30:39
;Gerber Generator version 0.3
M48
METRIC,LZ,0000.00000
;Hole size 1 = 0.76200 METRIC
T01C0.76200
;Hole size 2 = 0.80000 METRIC
T02C0.80000
;Hole size 3 = 0.89000 METRIC
T03C0.89000
;Hole size 4 = 1.30002 METRIC
T04C1.30002
%
G05
G90
T01
X14.097Y32.893
X9.652Y15.494
T02
X12.573Y17.99001
X12.573Y25.18999
X11.09299Y17.907
X15.875Y30.39699
X15.875Y23.19701
X14.52199Y30.48
T03
X30.099Y16.035
X30.099Y18.6055
X30.099Y13.495
X30.099Y10.955
X30.099Y8.415
X15.494Y40.132
X35.433Y28.765
X35.433Y26.225
X35.433Y13.495
X35.433Y10.955
X35.433Y6.223
X35.433Y8.382
X35.433Y23.685
X35.433Y21.145
X35.433Y16.035
X35.433Y18.6055
X22.733Y16.035
X22.733Y18.6055
X22.733Y13.495
X22.733Y10.955
X22.733Y8.415
X13.081Y6.477
X15.621Y6.477
X18.161Y6.477
X18.161Y3.747
X15.621Y3.747
X13.208Y3.81
X10.287Y3.747
X7.747Y3.747
X10.287Y6.477
X20.701Y3.747
X3.89301Y17.907
X25.527Y40.16405
X25.527Y31.46395
X29.21Y40.16405
X29.21Y31.46395
X32.30199Y25.4
X25.10201Y25.4
X32.30199Y28.194
X25.10201Y28.194
X7.32201Y30.48
T04
X16.129Y18.034
X16.129Y12.954
X16.129Y15.494
X20.32Y30.353
X20.32Y35.433
X20.32Y32.893
M30