G04 Layer: TopLayer*
G04 EasyEDA Pro v2.2.46.11, 2026-02-14 09:30:39*
G04 Gerber Generator version 0.3*
G04 Scale: 100 percent, Rotated: No, Reflected: No*
G04 Dimensions in millimeters*
G04 Leading zeros omitted, absolute positions, 4 integers and 5 decimals*
G04 Generated by one-click*
%FSLAX45Y45*%
%MOMM*%
%ADD10C,1.778*%
%ADD11C,2.0*%
%ADD12C,2.5*%
%ADD13C,1.524*%
%ADD14R,2.49999X2.0*%
%ADD15O,2.49999X2.0*%
%ADD16C,1.2*%
%ADD17C,1.8*%
%ADD18C,0.254*%
%ADD19C,0.7067*%
%ADD20C,0.7*%
%ADD21C,1.5*%
G75*


G04 Pad Start*
G54D10*
G01X1409700Y3289300D03*
G01X965200Y1549400D03*
G54D11*
G01X3009900Y1603500D03*
G01X3009900Y1860550D03*
G01X3009900Y1349500D03*
G01X3009900Y1095500D03*
G01X3009900Y841500D03*
G54D12*
G01X1549400Y4013200D03*
G54D13*
G01X3543300Y2876500D03*
G01X3543300Y2622500D03*
G01X3543300Y1349500D03*
G01X3543300Y1095500D03*
G01X3543300Y622300D03*
G01X3543300Y838200D03*
G01X3543300Y2368500D03*
G01X3543300Y2114500D03*
G01X3543300Y1603500D03*
G01X3543300Y1860550D03*
G54D11*
G01X2273300Y1603500D03*
G01X2273300Y1860550D03*
G01X2273300Y1349500D03*
G01X2273300Y1095500D03*
G01X2273300Y841500D03*
G54D13*
G01X1308100Y647700D03*
G01X1562100Y647700D03*
G01X1816100Y647700D03*
G01X1816100Y374700D03*
G01X1562100Y374700D03*
G01X1320800Y381000D03*
G01X1028700Y374700D03*
G01X774700Y374700D03*
G01X1028700Y647700D03*
G01X2070100Y374700D03*
G54D14*
G01X1612900Y1803400D03*
G54D15*
G01X1612900Y1295400D03*
G01X1612900Y1549400D03*
G54D14*
G01X2032000Y3035300D03*
G54D15*
G01X2032000Y3543300D03*
G01X2032000Y3289300D03*
G54D16*
G01X1257300Y1799006D03*
G01X1257300Y2518994D03*
G01X1109294Y1790700D03*
G01X389306Y1790700D03*
G01X1587500Y3039694D03*
G01X1587500Y2319706D03*
G54D17*
G01X2552700Y4016400D03*
G01X2552700Y3146400D03*
G01X2921000Y4016400D03*
G01X2921000Y3146400D03*
G54D16*
G01X3230194Y2540000D03*
G01X2510206Y2540000D03*
G01X3230194Y2819400D03*
G01X2510206Y2819400D03*
G01X1452194Y3048000D03*
G01X732206Y3048000D03*
G04 Pad End*

G04 Track Start*
G54D18*
G01X3009900Y1860550D02*
G01X3543300Y1860550D01*
G54D20*
G01X3009900Y1860550D02*
G01X2278125Y1860550D01*
G54D18*
G01X3543300Y1349500D02*
G01X3009900Y1349500D01*
G01X3543300Y1603500D02*
G01X3009900Y1603500D01*
G01X3005075Y1598675D01*
G01X2273300Y1598675D01*
G01X3009900Y1349500D02*
G01X3005075Y1344675D01*
G01X2273300Y1344675D01*
G01X2273300Y836675D02*
G01X3005075Y836675D01*
G01X3009900Y841500D01*
G01X3543300Y841500D01*
G01X3543300Y622300D02*
G01X2286000Y622300D01*
G01X3543300Y2876500D02*
G01X3536900Y2882900D01*
G01X3293694Y2882900D01*
G01X3230194Y2819400D01*
G01X3543300Y2622500D02*
G01X3312694Y2622500D01*
G01X3230194Y2540000D01*
G01X2921000Y3146400D02*
G01X2759100Y2984500D01*
G01X2628900Y2984500D01*
G01X2510206Y2865806D01*
G01X2510206Y2819400D01*
G01X2552700Y3146400D02*
G01X2362200Y2955900D01*
G01X2362200Y2616200D01*
G01X2438400Y2540000D01*
G01X2510206Y2540000D01*
G01X2032000Y3035300D02*
G01X1591894Y3035300D01*
G01X1587500Y3039694D01*
G01X1460500Y3039694D01*
G01X1452194Y3048000D01*
G01X3543300Y2368500D02*
G01X1636294Y2368500D01*
G01X1587500Y2319706D01*
G01X3543300Y1095500D02*
G01X3009900Y1095500D01*
G01X1612900Y1803400D02*
G01X1261694Y1803400D01*
G01X1257300Y1799006D01*
G01X1252906Y1803400D01*
G01X1121994Y1803400D01*
G01X1109294Y1790700D01*
G54D10*
G01X1612900Y1549400D02*
G01X965200Y1549400D01*
G54D13*
G01X389306Y1490294D02*
G01X389306Y1790700D01*
G01X1008561Y871039D02*
G01X389306Y1490294D01*
G01X1612900Y1295400D02*
G01X1516774Y1295400D01*
G01X732206Y3208706D02*
G01X1079246Y3555746D01*
G54D18*
G01X1257300Y2518994D02*
G01X1447800Y2328494D01*
G01X1447800Y2197100D01*
G01X1465761Y2179139D01*
G01X3478661Y2179139D01*
G01X3543300Y2114500D01*
G54D13*
G01X389306Y1790700D02*
G01X389306Y2002206D01*
G01X732206Y2345106D01*
G54D18*
G01X2286000Y622300D02*
G01X2133600Y774700D01*
G01X2133600Y950975D01*
G01X2273300Y1090675D01*
G54D13*
G01X2032000Y3543300D02*
G01X1091692Y3543300D01*
G01X1079246Y3555746D01*
G54D18*
G01X2921000Y4016400D02*
G01X2552700Y4016400D01*
G54D13*
G01X1536700Y4013200D02*
G01X1079246Y3555746D01*
G01X1549400Y4013200D02*
G01X1536700Y4013200D01*
G54D18*
G01X2552700Y4016400D02*
G01X1552600Y4016400D01*
G54D13*
G01X1516774Y1295400D02*
G01X1092413Y871039D01*
G54D21*
G01X1308100Y374700D02*
G01X1028700Y374700D01*
G01X1308100Y647700D02*
G01X1308100Y865967D01*
G01X1303028Y871039D01*
G54D13*
G01X1303028Y871039D02*
G01X1092413Y871039D01*
G54D21*
G01X1562100Y647700D02*
G01X1562100Y865589D01*
G01X1556649Y871039D01*
G54D13*
G01X1556649Y871039D02*
G01X1303028Y871039D01*
G54D21*
G01X1816100Y647700D02*
G01X1816100Y865211D01*
G01X1810271Y871039D01*
G54D13*
G01X1810271Y871039D02*
G01X1556649Y871039D01*
G01X2273300Y1860550D02*
G01X2004421Y1860550D01*
G01X1986461Y1842589D01*
G01X1986461Y906961D01*
G01X1950539Y871039D01*
G01X1810271Y871039D01*
G54D10*
G01X2032000Y3289300D02*
G01X2019422Y3276722D01*
G01X1422278Y3276722D01*
G01X1409700Y3289300D01*
G54D21*
G01X1028700Y647700D02*
G01X1028700Y825500D01*
G54D13*
G01X1092413Y871039D02*
G01X1008561Y871039D01*
G54D21*
G01X774700Y374700D02*
G01X1028700Y374700D01*
G01X1562100Y374700D02*
G01X1816100Y374700D01*
G01X2070100Y374700D02*
G01X1816100Y374700D01*
G54D13*
G01X732206Y2345106D02*
G01X732206Y3048000D01*
G01X732206Y3208706D01*
G04 Track End*

M02*

