G04 Layer: TopSolderMaskLayer*
G04 EasyEDA Pro v2.2.46.11, 2026-02-14 09:30:39*
G04 Gerber Generator version 0.3*
G04 Scale: 100 percent, Rotated: No, Reflected: No*
G04 Dimensions in millimeters*
G04 Leading zeros omitted, absolute positions, 4 integers and 5 decimals*
G04 Generated by one-click*
%FSLAX45Y45*%
%MOMM*%
%AMRoundRect*1,1,$1,$2,$3*1,1,$1,$4,$5*1,1,$1,0-$2,0-$3*1,1,$1,0-$4,0-$5*20,1,$1,$2,$3,$4,$5,0*20,1,$1,$4,$5,0-$2,0-$3,0*20,1,$1,0-$2,0-$3,0-$4,0-$5,0*20,1,$1,0-$4,0-$5,$2,$3,0*4,1,4,$2,$3,$4,$5,0-$2,0-$3,0-$4,0-$5,$2,$3,0*%
%ADD10C,1.8796*%
%ADD11C,2.1016*%
%ADD12C,2.6016*%
%ADD13C,1.6256*%
%ADD14RoundRect,0.09691X-1.25234X-1.00234X-1.25234X1.00234*%
%ADD15O,2.6016X2.1016*%
%ADD16C,1.3016*%
%ADD17C,1.9068*%
%ADD18C,1.9016*%
G75*


G04 Pad Start*
G54D10*
G01X1409700Y3289300D03*
G01X965200Y1549400D03*
G54D11*
G01X3009900Y1603500D03*
G01X3009900Y1860550D03*
G01X3009900Y1349500D03*
G01X3009900Y1095500D03*
G01X3009900Y841500D03*
G54D12*
G01X1549400Y4013200D03*
G54D13*
G01X3543300Y2876500D03*
G01X3543300Y2622500D03*
G01X3543300Y1349500D03*
G01X3543300Y1095500D03*
G01X3543300Y622300D03*
G01X3543300Y838200D03*
G01X3543300Y2368500D03*
G01X3543300Y2114500D03*
G01X3543300Y1603500D03*
G01X3543300Y1860550D03*
G54D11*
G01X2273300Y1603500D03*
G01X2273300Y1860550D03*
G01X2273300Y1349500D03*
G01X2273300Y1095500D03*
G01X2273300Y841500D03*
G54D13*
G01X1308100Y647700D03*
G01X1562100Y647700D03*
G01X1816100Y647700D03*
G01X1816100Y374700D03*
G01X1562100Y374700D03*
G01X1320800Y381000D03*
G01X1028700Y374700D03*
G01X774700Y374700D03*
G01X1028700Y647700D03*
G01X2070100Y374700D03*
G54D14*
G01X1612900Y1803400D03*
G54D15*
G01X1612900Y1295400D03*
G01X1612900Y1549400D03*
G54D14*
G01X2032000Y3035300D03*
G54D15*
G01X2032000Y3543300D03*
G01X2032000Y3289300D03*
G54D16*
G01X1257300Y1799006D03*
G01X1257300Y2518994D03*
G01X1109294Y1790700D03*
G01X389306Y1790700D03*
G01X1587500Y3039694D03*
G01X1587500Y2319706D03*
G54D18*
G01X2552700Y4016400D03*
G01X2552700Y3146400D03*
G01X2921000Y4016400D03*
G01X2921000Y3146400D03*
G54D16*
G01X3230194Y2540000D03*
G01X2510206Y2540000D03*
G01X3230194Y2819400D03*
G01X2510206Y2819400D03*
G01X1452194Y3048000D03*
G01X732206Y3048000D03*
G04 Pad End*

M02*

