G04 Layer: DrillDrawingLayer*
G04 EasyEDA Pro v2.2.46.11, 2026-02-14 09:30:39*
G04 Gerber Generator version 0.3*
G04 Scale: 100 percent, Rotated: No, Reflected: No*
G04 Dimensions in millimeters*
G04 Leading zeros omitted, absolute positions, 4 integers and 5 decimals*
G04 Generated by one-click*
%FSLAX45Y45*%
%MOMM*%
%AMIconRect*4,1,4,0.28,-0.28,-0.28,-0.28,-0.28,0.28,0.28,0.28,0.28,-0.28,0*4,0,4,0.233333,-0.233333,0.233333,0.233333,-0.233333,0.233333,-0.233333,-0.233333,0.233333,-0.233333,0*%
%AMIconTriangle*4,1,3,-0.339593,0.240473,0.339593,0.240473,0,-0.37884,-0.339593,0.240473,0*4,0,3,-0.265673,0.19404,0,-0.27342,0.266233,0.19404,-0.265673,0.19404,0*%
%AMIconStar6*4,1,12,0.12068,0.20888,0.298527,0.172713,0.241313,0,0.298527,-0.17206,0.12068,-0.208227,0,-0.344073,-0.120073,-0.208227,-0.298573,-0.17206,-0.240707,0,-0.298573,0.17206,-0.120073,0.20888,0,0.344073,0.12068,0.20888,0*4,0,12,-0.000467,0.273467,-0.090067,0.171733,-0.237533,0.136733,-0.193667,-0.007467,-0.237533,-0.1372,-0.090067,-0.171733,-0.000467,-0.273933,0.090067,-0.171733,0.237533,-0.1372,0.194133,0.007,0.237533,0.1372,0.090067,0.171267,-0.000467,0.273467,0*%
%ADD10IconRect*%
%ADD11C,0.616X0.522667*%
%ADD12IconTriangle*%
%ADD13IconStar6*%
G75*


G04 Drill Drawing Start*
G54D10*
G01X965200Y1549400D03*
G01X1409700Y3289300D03*
G54D11*
G01X1612900Y1295400D03*
G01X1612900Y1549400D03*
G01X1612900Y1803400D03*
G01X2032000Y3035300D03*
G01X2032000Y3289300D03*
G01X2032000Y3543300D03*
G54D12*
G01X1109294Y1790700D03*
G01X1257300Y1799006D03*
G01X1257300Y2518994D03*
G01X1452194Y3048000D03*
G01X1587500Y2319706D03*
G01X1587500Y3039694D03*
G54D13*
G01X389306Y1790700D03*
G01X732206Y3048000D03*
G01X774700Y374700D03*
G01X1028700Y374700D03*
G01X1028700Y647700D03*
G01X1308100Y647700D03*
G01X1320800Y381000D03*
G01X1549400Y4013200D03*
G01X1562100Y374700D03*
G01X1562100Y647700D03*
G01X1816100Y374700D03*
G01X1816100Y647700D03*
G01X2070100Y374700D03*
G01X2273300Y841500D03*
G01X2273300Y1095500D03*
G01X2273300Y1349500D03*
G01X2273300Y1603500D03*
G01X2273300Y1860550D03*
G01X2510206Y2540000D03*
G01X2510206Y2819400D03*
G01X2552700Y3146400D03*
G01X2552700Y4016400D03*
G01X2921000Y3146400D03*
G01X2921000Y4016400D03*
G01X3009900Y841500D03*
G01X3009900Y1095500D03*
G01X3009900Y1349500D03*
G01X3009900Y1603500D03*
G01X3009900Y1860550D03*
G01X3230194Y2540000D03*
G01X3230194Y2819400D03*
G01X3543300Y622300D03*
G01X3543300Y838200D03*
G01X3543300Y1095500D03*
G01X3543300Y1349500D03*
G01X3543300Y1603500D03*
G01X3543300Y1860550D03*
G01X3543300Y2114500D03*
G01X3543300Y2368500D03*
G01X3543300Y2622500D03*
G01X3543300Y2876500D03*
G04 Drill Drawing End*

M02*

