G04 Layer: TopSilkscreenLayer*
G04 EasyEDA Pro v2.2.46.11, 2026-02-14 09:30:39*
G04 Gerber Generator version 0.3*
G04 Scale: 100 percent, Rotated: No, Reflected: No*
G04 Dimensions in millimeters*
G04 Leading zeros omitted, absolute positions, 4 integers and 5 decimals*
G04 Generated by one-click*
%FSLAX45Y45*%
%MOMM*%
%ADD10C,0.1524*%
%ADD11C,0.254*%
%ADD12C,0.4*%
%ADD13C,0.9136*%
G75*


G04 Text Start*
G54D10*
G01X1047666Y1746626D02*
G01X1112690Y1746626D01*
G01X1047666Y1746626D02*
G01X1047666Y1774566D01*
G01X1050714Y1783710D01*
G01X1053762Y1786758D01*
G01X1060112Y1790060D01*
G01X1066208Y1790060D01*
G01X1072304Y1786758D01*
G01X1075352Y1783710D01*
G01X1078654Y1774566D01*
G01X1078654Y1746626D01*
G01X1078654Y1768216D02*
G01X1112690Y1790060D01*
G01X1060112Y1820286D02*
G01X1056810Y1826382D01*
G01X1047666Y1835526D01*
G01X1112690Y1835526D01*
G01X1161674Y1581066D02*
G01X1161674Y1646090D01*
G01X1161674Y1581066D02*
G01X1133734Y1581066D01*
G01X1124590Y1584114D01*
G01X1121542Y1587162D01*
G01X1118240Y1593512D01*
G01X1118240Y1599608D01*
G01X1121542Y1605704D01*
G01X1124590Y1608752D01*
G01X1133734Y1612054D01*
G01X1161674Y1612054D01*
G01X1140084Y1612054D02*
G01X1118240Y1646090D01*
G01X1084966Y1596560D02*
G01X1084966Y1593512D01*
G01X1081918Y1587162D01*
G01X1078870Y1584114D01*
G01X1072774Y1581066D01*
G01X1060328Y1581066D01*
G01X1053978Y1584114D01*
G01X1050930Y1587162D01*
G01X1047882Y1593512D01*
G01X1047882Y1599608D01*
G01X1050930Y1605704D01*
G01X1057280Y1615102D01*
G01X1088014Y1646090D01*
G01X1044834Y1646090D01*
G01X2896956Y4098780D02*
G01X2831932Y4098780D01*
G01X2896956Y4098780D02*
G01X2896956Y4077190D01*
G01X2893908Y4067792D01*
G01X2887812Y4061696D01*
G01X2881462Y4058648D01*
G01X2872318Y4055346D01*
G01X2856824Y4055346D01*
G01X2847426Y4058648D01*
G01X2841330Y4061696D01*
G01X2834980Y4067792D01*
G01X2831932Y4077190D01*
G01X2831932Y4098780D01*
G01X2884510Y4025120D02*
G01X2887812Y4019024D01*
G01X2896956Y4009880D01*
G01X2831932Y4009880D01*
G01X3265256Y4098780D02*
G01X3200232Y4098780D01*
G01X3265256Y4098780D02*
G01X3265256Y4077190D01*
G01X3262208Y4067792D01*
G01X3256112Y4061696D01*
G01X3249762Y4058648D01*
G01X3240618Y4055346D01*
G01X3225124Y4055346D01*
G01X3215726Y4058648D01*
G01X3209630Y4061696D01*
G01X3203280Y4067792D01*
G01X3200232Y4077190D01*
G01X3200232Y4098780D01*
G01X3249762Y4022072D02*
G01X3252810Y4022072D01*
G01X3259160Y4019024D01*
G01X3262208Y4015976D01*
G01X3265256Y4009880D01*
G01X3265256Y3997434D01*
G01X3262208Y3991084D01*
G01X3259160Y3988036D01*
G01X3252810Y3984988D01*
G01X3246714Y3984988D01*
G01X3240618Y3988036D01*
G01X3231220Y3994386D01*
G01X3200232Y4025120D01*
G01X3200232Y3981940D01*
G04 Text End*

G04 PolygonModel Start*
G54D11*
G01X1795899Y2057400D02*
G01X1795899Y1041400D01*
G01X1435100Y2057400D02*
G01X1435100Y1041400D01*
G01X1435100Y1041400D02*
G01X1879600Y1041400D01*
G01X1879600Y1041400D02*
G01X1879600Y2057400D01*
G01X1879600Y2057400D02*
G01X1435100Y2057400D01*
G54D12*
G01X1366520Y1826260D02*
G03X1326520Y1826133I-20000J-127D01*
G03X1366520Y1826006I20000J0D01*
G54D11*
G01X1849001Y2781300D02*
G01X1849001Y3797300D01*
G01X2209800Y2781300D02*
G01X2209800Y3797300D01*
G01X2209800Y3797300D02*
G01X1765300Y3797300D01*
G01X1765300Y3797300D02*
G01X1765300Y2781300D01*
G01X1765300Y2781300D02*
G01X2209800Y2781300D01*
G54D12*
G01X2278380Y3012440D02*
G03X2318380Y3012567I20000J127D01*
G03X2278380Y3012694I-20000J0D01*
G54D11*
G01X1167303Y1998998D02*
G01X1167300Y2319002D01*
G01X1167303Y2319002D02*
G01X1347300Y2319002D01*
G01X1347297Y2319002D02*
G01X1347300Y1998998D01*
G01X1347297Y1998998D02*
G01X1167300Y1998998D01*
G01X909302Y1700703D02*
G01X589298Y1700700D01*
G01X589298Y1700703D02*
G01X589298Y1880700D01*
G01X589298Y1880697D02*
G01X909302Y1880700D01*
G01X909302Y1880697D02*
G01X909302Y1700700D01*
G01X1677497Y2839702D02*
G01X1677500Y2519698D01*
G01X1677497Y2519698D02*
G01X1497500Y2519698D01*
G01X1497503Y2519698D02*
G01X1497500Y2839702D01*
G01X1497503Y2839702D02*
G01X1677500Y2839702D01*
G01X2692700Y3841399D02*
G01X2692700Y3321401D01*
G01X2692700Y3321401D02*
G01X2412700Y3321401D01*
G01X2412700Y3841399D02*
G01X2412700Y3321401D01*
G01X2692700Y3841399D02*
G01X2412700Y3841399D01*
G01X2692700Y3745474D02*
G01X2412700Y3745474D01*
G01X3061000Y3841399D02*
G01X3061000Y3321401D01*
G01X3061000Y3321401D02*
G01X2781000Y3321401D01*
G01X2781000Y3841399D02*
G01X2781000Y3321401D01*
G01X3061000Y3841399D02*
G01X2781000Y3841399D01*
G01X3061000Y3745474D02*
G01X2781000Y3745474D01*
G01X3030202Y2450003D02*
G01X2710198Y2450000D01*
G01X2710198Y2450003D02*
G01X2710198Y2630000D01*
G01X2710198Y2629997D02*
G01X3030202Y2630000D01*
G01X3030202Y2629997D02*
G01X3030202Y2450000D01*
G01X3030202Y2729403D02*
G01X2710198Y2729400D01*
G01X2710198Y2729403D02*
G01X2710198Y2909400D01*
G01X2710198Y2909397D02*
G01X3030202Y2909400D01*
G01X3030202Y2909397D02*
G01X3030202Y2729400D01*
G01X1252202Y2958003D02*
G01X932198Y2958000D01*
G01X932198Y2958003D02*
G01X932198Y3138000D01*
G01X932198Y3137997D02*
G01X1252202Y3138000D01*
G01X1252202Y3137997D02*
G01X1252202Y2958000D01*

M02*

