ISO-10303-21;
HEADER;
/*Generated by software containing ST-Developer
 * from STEP Tools, Inc. (www.steptools.com) 
 */
/*OPTION: using custom renumber hook */
/*description */
/*implementation_level */
FILE_DESCRIPTION(('STEP AP242 Edition 2','STEP AP242 Edition 2''CAx-IF Rec.Pracs.---Representation and Presentation of Product Manufa
cturing Information (PMI)---4.0---2014-10-13','STEP AP242 Edition 2''CAx-IF Rec.Pracs.---Representation and Presentation of Product Manufa
cturing Information (PMI)---4.0---2014-10-13''CAx-IF Rec.Pracs.---3D Tessellated Geometry---0.4---2014-09-14','STEP AP242 Edition 2''CAx-IF Rec.Pracs.---Representation and Presentation of Product Manufa
cturing Information (PMI)---4.0---2014-10-13''CAx-IF Rec.Pracs.---3D Tessellated Geometry---0.4---2014-09-14''2;1','STEP AP242 Edition 2''CAx-IF Rec.Pracs.---Representation and Presentation of Product Manufa
cturing Information (PMI)---4.0---2014-10-13''CAx-IF Rec.Pracs.---3D Tessellated Geometry---0.4---2014-09-14''2;1''CAx-IF Rec.Pracs.---User Defined Attributes---1.5---2016-08-15'),'2;1');
/*name */
/*time_stamp */
/*author */
/*organization */
/*preprocessor_version */
/*originating_system */
/*authorisation */
FILE_NAME('/vol/tmp/translate-11530875644654778770/Fans.step','2026-02-23T13:32:12',(''),(''),'ST-DEVELOPER v20','ONSHAPE BY PTC INC, 1.211','  ');
FILE_SCHEMA(('AP242_MANAGED_MODEL_BASED_3D_ENGINEERING_MIM_LF { 1 0 10303 442 3 1 4 }'));
ENDSEC;
DATA;
#10=SHAPE_REPRESENTATION_RELATIONSHIP('','',#811,#11);
#11=ADVANCED_BREP_SHAPE_REPRESENTATION('',(#809),#1351);
#12=CYLINDRICAL_SURFACE('',#825,0.0625);
#13=CYLINDRICAL_SURFACE('',#851,0.06);
#14=CYLINDRICAL_SURFACE('',#860,0.06);
#15=CYLINDRICAL_SURFACE('',#875,0.06);
#16=CYLINDRICAL_SURFACE('',#880,0.06);
#17=CYLINDRICAL_SURFACE('',#885,0.01);
#18=LINE('',#1125,#98);
#19=LINE('',#1129,#99);
#20=LINE('',#1134,#100);
#21=LINE('',#1138,#101);
#22=LINE('',#1143,#102);
#23=LINE('',#1147,#103);
#24=LINE('',#1149,#104);
#25=LINE('',#1152,#105);
#26=LINE('',#1154,#106);
#27=LINE('',#1156,#107);
#28=LINE('',#1158,#108);
#29=LINE('',#1160,#109);
#30=LINE('',#1162,#110);
#31=LINE('',#1164,#111);
#32=LINE('',#1166,#112);
#33=LINE('',#1168,#113);
#34=LINE('',#1170,#114);
#35=LINE('',#1172,#115);
#36=LINE('',#1176,#116);
#37=LINE('',#1177,#117);
#38=LINE('',#1181,#118);
#39=LINE('',#1182,#119);
#40=LINE('',#1186,#120);
#41=LINE('',#1190,#121);
#42=LINE('',#1196,#122);
#43=LINE('',#1197,#123);
#44=LINE('',#1199,#124);
#45=LINE('',#1201,#125);
#46=LINE('',#1202,#126);
#47=LINE('',#1204,#127);
#48=LINE('',#1205,#128);
#49=LINE('',#1207,#129);
#50=LINE('',#1208,#130);
#51=LINE('',#1210,#131);
#52=LINE('',#1213,#132);
#53=LINE('',#1215,#133);
#54=LINE('',#1217,#134);
#55=LINE('',#1219,#135);
#56=LINE('',#1221,#136);
#57=LINE('',#1223,#137);
#58=LINE('',#1225,#138);
#59=LINE('',#1227,#139);
#60=LINE('',#1229,#140);
#61=LINE('',#1231,#141);
#62=LINE('',#1233,#142);
#63=LINE('',#1235,#143);
#64=LINE('',#1237,#144);
#65=LINE('',#1239,#145);
#66=LINE('',#1243,#146);
#67=LINE('',#1248,#147);
#68=LINE('',#1253,#148);
#69=LINE('',#1256,#149);
#70=LINE('',#1258,#150);
#71=LINE('',#1260,#151);
#72=LINE('',#1262,#152);
#73=LINE('',#1264,#153);
#74=LINE('',#1266,#154);
#75=LINE('',#1275,#155);
#76=LINE('',#1279,#156);
#77=LINE('',#1281,#157);
#78=LINE('',#1283,#158);
#79=LINE('',#1287,#159);
#80=LINE('',#1291,#160);
#81=LINE('',#1293,#161);
#82=LINE('',#1295,#162);
#83=LINE('',#1301,#163);
#84=LINE('',#1309,#164);
#85=LINE('',#1313,#165);
#86=LINE('',#1315,#166);
#87=LINE('',#1317,#167);
#88=LINE('',#1319,#168);
#89=LINE('',#1321,#169);
#90=LINE('',#1323,#170);
#91=LINE('',#1325,#171);
#92=LINE('',#1331,#172);
#93=LINE('',#1333,#173);
#94=LINE('',#1335,#174);
#95=LINE('',#1337,#175);
#96=LINE('',#1341,#176);
#97=LINE('',#1343,#177);
#98=VECTOR('',#894,1.);
#99=VECTOR('',#897,1.);
#100=VECTOR('',#902,1.);
#101=VECTOR('',#905,1.);
#102=VECTOR('',#910,1.);
#103=VECTOR('',#913,1.);
#104=VECTOR('',#916,1.);
#105=VECTOR('',#917,1.);
#106=VECTOR('',#918,1.);
#107=VECTOR('',#919,1.);
#108=VECTOR('',#922,1.);
#109=VECTOR('',#923,1.);
#110=VECTOR('',#924,1.);
#111=VECTOR('',#927,1.);
#112=VECTOR('',#928,1.);
#113=VECTOR('',#929,1.);
#114=VECTOR('',#932,1.);
#115=VECTOR('',#933,1.);
#116=VECTOR('',#936,1.);
#117=VECTOR('',#937,1.);
#118=VECTOR('',#940,1.);
#119=VECTOR('',#941,1.);
#120=VECTOR('',#944,1.);
#121=VECTOR('',#947,1.);
#122=VECTOR('',#954,1.);
#123=VECTOR('',#955,1.);
#124=VECTOR('',#958,1.);
#125=VECTOR('',#959,1.);
#126=VECTOR('',#960,1.);
#127=VECTOR('',#961,1.);
#128=VECTOR('',#962,1.);
#129=VECTOR('',#963,1.);
#130=VECTOR('',#964,1.);
#131=VECTOR('',#965,1.);
#132=VECTOR('',#970,1.);
#133=VECTOR('',#971,1.);
#134=VECTOR('',#972,1.);
#135=VECTOR('',#975,1.);
#136=VECTOR('',#978,1.);
#137=VECTOR('',#979,1.);
#138=VECTOR('',#982,1.);
#139=VECTOR('',#985,1.);
#140=VECTOR('',#986,1.);
#141=VECTOR('',#989,1.);
#142=VECTOR('',#992,1.);
#143=VECTOR('',#993,1.);
#144=VECTOR('',#996,1.);
#145=VECTOR('',#997,1.);
#146=VECTOR('',#1004,1.);
#147=VECTOR('',#1007,1.);
#148=VECTOR('',#1014,1.);
#149=VECTOR('',#1015,1.);
#150=VECTOR('',#1016,1.);
#151=VECTOR('',#1017,1.);
#152=VECTOR('',#1020,1.);
#153=VECTOR('',#1021,1.);
#154=VECTOR('',#1022,1.);
#155=VECTOR('',#1037,1.);
#156=VECTOR('',#1042,1.);
#157=VECTOR('',#1043,1.);
#158=VECTOR('',#1044,1.);
#159=VECTOR('',#1049,1.);
#160=VECTOR('',#1054,1.);
#161=VECTOR('',#1055,1.);
#162=VECTOR('',#1056,1.);
#163=VECTOR('',#1065,1.);
#164=VECTOR('',#1074,1.);
#165=VECTOR('',#1077,1.);
#166=VECTOR('',#1080,1.);
#167=VECTOR('',#1081,1.);
#168=VECTOR('',#1082,1.);
#169=VECTOR('',#1085,1.);
#170=VECTOR('',#1086,1.);
#171=VECTOR('',#1087,1.);
#172=VECTOR('',#1098,1.);
#173=VECTOR('',#1099,1.);
#174=VECTOR('',#1100,1.);
#175=VECTOR('',#1103,1.);
#176=VECTOR('',#1108,1.);
#177=VECTOR('',#1109,1.);
#178=ORIENTED_EDGE('',*,*,#406,.F.);
#179=ORIENTED_EDGE('',*,*,#407,.F.);
#180=ORIENTED_EDGE('',*,*,#408,.F.);
#181=ORIENTED_EDGE('',*,*,#409,.T.);
#182=ORIENTED_EDGE('',*,*,#410,.F.);
#183=ORIENTED_EDGE('',*,*,#411,.F.);
#184=ORIENTED_EDGE('',*,*,#412,.F.);
#185=ORIENTED_EDGE('',*,*,#413,.T.);
#186=ORIENTED_EDGE('',*,*,#414,.F.);
#187=ORIENTED_EDGE('',*,*,#415,.T.);
#188=ORIENTED_EDGE('',*,*,#416,.F.);
#189=ORIENTED_EDGE('',*,*,#417,.F.);
#190=ORIENTED_EDGE('',*,*,#418,.F.);
#191=ORIENTED_EDGE('',*,*,#419,.F.);
#192=ORIENTED_EDGE('',*,*,#420,.T.);
#193=ORIENTED_EDGE('',*,*,#421,.T.);
#194=ORIENTED_EDGE('',*,*,#422,.T.);
#195=ORIENTED_EDGE('',*,*,#423,.F.);
#196=ORIENTED_EDGE('',*,*,#424,.F.);
#197=ORIENTED_EDGE('',*,*,#419,.T.);
#198=ORIENTED_EDGE('',*,*,#425,.T.);
#199=ORIENTED_EDGE('',*,*,#426,.F.);
#200=ORIENTED_EDGE('',*,*,#427,.F.);
#201=ORIENTED_EDGE('',*,*,#423,.T.);
#202=ORIENTED_EDGE('',*,*,#428,.F.);
#203=ORIENTED_EDGE('',*,*,#408,.T.);
#204=ORIENTED_EDGE('',*,*,#429,.T.);
#205=ORIENTED_EDGE('',*,*,#430,.T.);
#206=ORIENTED_EDGE('',*,*,#431,.F.);
#207=ORIENTED_EDGE('',*,*,#412,.T.);
#208=ORIENTED_EDGE('',*,*,#432,.T.);
#209=ORIENTED_EDGE('',*,*,#433,.T.);
#210=ORIENTED_EDGE('',*,*,#434,.F.);
#211=ORIENTED_EDGE('',*,*,#416,.T.);
#212=ORIENTED_EDGE('',*,*,#435,.T.);
#213=ORIENTED_EDGE('',*,*,#436,.T.);
#214=ORIENTED_EDGE('',*,*,#437,.F.);
#215=ORIENTED_EDGE('',*,*,#438,.T.);
#216=ORIENTED_EDGE('',*,*,#439,.T.);
#217=ORIENTED_EDGE('',*,*,#440,.T.);
#218=ORIENTED_EDGE('',*,*,#441,.F.);
#219=ORIENTED_EDGE('',*,*,#442,.F.);
#220=ORIENTED_EDGE('',*,*,#421,.F.);
#221=ORIENTED_EDGE('',*,*,#443,.T.);
#222=ORIENTED_EDGE('',*,*,#426,.T.);
#223=ORIENTED_EDGE('',*,*,#430,.F.);
#224=ORIENTED_EDGE('',*,*,#444,.T.);
#225=ORIENTED_EDGE('',*,*,#445,.F.);
#226=ORIENTED_EDGE('',*,*,#433,.F.);
#227=ORIENTED_EDGE('',*,*,#446,.T.);
#228=ORIENTED_EDGE('',*,*,#447,.T.);
#229=ORIENTED_EDGE('',*,*,#436,.F.);
#230=ORIENTED_EDGE('',*,*,#448,.F.);
#231=ORIENTED_EDGE('',*,*,#449,.T.);
#232=ORIENTED_EDGE('',*,*,#440,.F.);
#233=ORIENTED_EDGE('',*,*,#450,.F.);
#234=ORIENTED_EDGE('',*,*,#451,.F.);
#235=ORIENTED_EDGE('',*,*,#420,.F.);
#236=ORIENTED_EDGE('',*,*,#424,.T.);
#237=ORIENTED_EDGE('',*,*,#427,.T.);
#238=ORIENTED_EDGE('',*,*,#443,.F.);
#239=ORIENTED_EDGE('',*,*,#441,.T.);
#240=ORIENTED_EDGE('',*,*,#418,.T.);
#241=ORIENTED_EDGE('',*,*,#442,.T.);
#242=ORIENTED_EDGE('',*,*,#425,.F.);
#243=ORIENTED_EDGE('',*,*,#422,.F.);
#244=ORIENTED_EDGE('',*,*,#450,.T.);
#245=ORIENTED_EDGE('',*,*,#439,.F.);
#246=ORIENTED_EDGE('',*,*,#452,.F.);
#247=ORIENTED_EDGE('',*,*,#453,.F.);
#248=ORIENTED_EDGE('',*,*,#454,.T.);
#249=ORIENTED_EDGE('',*,*,#451,.T.);
#250=ORIENTED_EDGE('',*,*,#454,.F.);
#251=ORIENTED_EDGE('',*,*,#455,.F.);
#252=ORIENTED_EDGE('',*,*,#409,.F.);
#253=ORIENTED_EDGE('',*,*,#428,.T.);
#254=ORIENTED_EDGE('',*,*,#444,.F.);
#255=ORIENTED_EDGE('',*,*,#429,.F.);
#256=ORIENTED_EDGE('',*,*,#407,.T.);
#257=ORIENTED_EDGE('',*,*,#456,.T.);
#258=ORIENTED_EDGE('',*,*,#457,.T.);
#259=ORIENTED_EDGE('',*,*,#445,.T.);
#260=ORIENTED_EDGE('',*,*,#457,.F.);
#261=ORIENTED_EDGE('',*,*,#458,.F.);
#262=ORIENTED_EDGE('',*,*,#413,.F.);
#263=ORIENTED_EDGE('',*,*,#431,.T.);
#264=ORIENTED_EDGE('',*,*,#446,.F.);
#265=ORIENTED_EDGE('',*,*,#432,.F.);
#266=ORIENTED_EDGE('',*,*,#411,.T.);
#267=ORIENTED_EDGE('',*,*,#459,.T.);
#268=ORIENTED_EDGE('',*,*,#460,.T.);
#269=ORIENTED_EDGE('',*,*,#447,.F.);
#270=ORIENTED_EDGE('',*,*,#460,.F.);
#271=ORIENTED_EDGE('',*,*,#461,.T.);
#272=ORIENTED_EDGE('',*,*,#417,.T.);
#273=ORIENTED_EDGE('',*,*,#434,.T.);
#274=ORIENTED_EDGE('',*,*,#448,.T.);
#275=ORIENTED_EDGE('',*,*,#435,.F.);
#276=ORIENTED_EDGE('',*,*,#415,.F.);
#277=ORIENTED_EDGE('',*,*,#462,.F.);
#278=ORIENTED_EDGE('',*,*,#463,.T.);
#279=ORIENTED_EDGE('',*,*,#449,.F.);
#280=ORIENTED_EDGE('',*,*,#463,.F.);
#281=ORIENTED_EDGE('',*,*,#464,.T.);
#282=ORIENTED_EDGE('',*,*,#465,.T.);
#283=ORIENTED_EDGE('',*,*,#437,.T.);
#284=ORIENTED_EDGE('',*,*,#466,.F.);
#285=ORIENTED_EDGE('',*,*,#452,.T.);
#286=ORIENTED_EDGE('',*,*,#438,.F.);
#287=ORIENTED_EDGE('',*,*,#465,.F.);
#288=ORIENTED_EDGE('',*,*,#467,.F.);
#289=ORIENTED_EDGE('',*,*,#468,.F.);
#290=ORIENTED_EDGE('',*,*,#469,.T.);
#291=ORIENTED_EDGE('',*,*,#470,.F.);
#292=ORIENTED_EDGE('',*,*,#455,.T.);
#293=ORIENTED_EDGE('',*,*,#453,.T.);
#294=ORIENTED_EDGE('',*,*,#471,.F.);
#295=ORIENTED_EDGE('',*,*,#472,.F.);
#296=ORIENTED_EDGE('',*,*,#473,.F.);
#297=ORIENTED_EDGE('',*,*,#474,.T.);
#298=ORIENTED_EDGE('',*,*,#475,.T.);
#299=ORIENTED_EDGE('',*,*,#467,.T.);
#300=ORIENTED_EDGE('',*,*,#476,.F.);
#301=ORIENTED_EDGE('',*,*,#477,.F.);
#302=ORIENTED_EDGE('',*,*,#478,.T.);
#303=ORIENTED_EDGE('',*,*,#471,.T.);
#304=ORIENTED_EDGE('',*,*,#466,.T.);
#305=ORIENTED_EDGE('',*,*,#479,.T.);
#306=ORIENTED_EDGE('',*,*,#475,.F.);
#307=ORIENTED_EDGE('',*,*,#480,.F.);
#308=ORIENTED_EDGE('',*,*,#476,.T.);
#309=ORIENTED_EDGE('',*,*,#474,.F.);
#310=ORIENTED_EDGE('',*,*,#481,.F.);
#311=ORIENTED_EDGE('',*,*,#477,.T.);
#312=ORIENTED_EDGE('',*,*,#480,.T.);
#313=ORIENTED_EDGE('',*,*,#479,.F.);
#314=ORIENTED_EDGE('',*,*,#464,.F.);
#315=ORIENTED_EDGE('',*,*,#462,.T.);
#316=ORIENTED_EDGE('',*,*,#482,.F.);
#317=ORIENTED_EDGE('',*,*,#483,.F.);
#318=ORIENTED_EDGE('',*,*,#484,.F.);
#319=ORIENTED_EDGE('',*,*,#472,.T.);
#320=ORIENTED_EDGE('',*,*,#483,.T.);
#321=ORIENTED_EDGE('',*,*,#485,.F.);
#322=ORIENTED_EDGE('',*,*,#486,.F.);
#323=ORIENTED_EDGE('',*,*,#487,.T.);
#324=ORIENTED_EDGE('',*,*,#482,.T.);
#325=ORIENTED_EDGE('',*,*,#414,.T.);
#326=ORIENTED_EDGE('',*,*,#488,.T.);
#327=ORIENTED_EDGE('',*,*,#489,.F.);
#328=ORIENTED_EDGE('',*,*,#490,.F.);
#329=ORIENTED_EDGE('',*,*,#485,.T.);
#330=ORIENTED_EDGE('',*,*,#491,.F.);
#331=ORIENTED_EDGE('',*,*,#492,.F.);
#332=ORIENTED_EDGE('',*,*,#493,.T.);
#333=ORIENTED_EDGE('',*,*,#489,.T.);
#334=ORIENTED_EDGE('',*,*,#494,.F.);
#335=ORIENTED_EDGE('',*,*,#486,.T.);
#336=ORIENTED_EDGE('',*,*,#490,.T.);
#337=ORIENTED_EDGE('',*,*,#493,.F.);
#338=ORIENTED_EDGE('',*,*,#488,.F.);
#339=ORIENTED_EDGE('',*,*,#461,.F.);
#340=ORIENTED_EDGE('',*,*,#459,.F.);
#341=ORIENTED_EDGE('',*,*,#495,.F.);
#342=ORIENTED_EDGE('',*,*,#496,.F.);
#343=ORIENTED_EDGE('',*,*,#497,.F.);
#344=ORIENTED_EDGE('',*,*,#491,.T.);
#345=ORIENTED_EDGE('',*,*,#498,.F.);
#346=ORIENTED_EDGE('',*,*,#458,.T.);
#347=ORIENTED_EDGE('',*,*,#456,.F.);
#348=ORIENTED_EDGE('',*,*,#499,.F.);
#349=ORIENTED_EDGE('',*,*,#500,.F.);
#350=ORIENTED_EDGE('',*,*,#501,.F.);
#351=ORIENTED_EDGE('',*,*,#502,.T.);
#352=ORIENTED_EDGE('',*,*,#502,.F.);
#353=ORIENTED_EDGE('',*,*,#503,.F.);
#354=ORIENTED_EDGE('',*,*,#504,.T.);
#355=ORIENTED_EDGE('',*,*,#505,.T.);
#356=ORIENTED_EDGE('',*,*,#496,.T.);
#357=ORIENTED_EDGE('',*,*,#506,.F.);
#358=ORIENTED_EDGE('',*,*,#507,.F.);
#359=ORIENTED_EDGE('',*,*,#508,.T.);
#360=ORIENTED_EDGE('',*,*,#495,.T.);
#361=ORIENTED_EDGE('',*,*,#410,.T.);
#362=ORIENTED_EDGE('',*,*,#498,.T.);
#363=ORIENTED_EDGE('',*,*,#505,.F.);
#364=ORIENTED_EDGE('',*,*,#509,.F.);
#365=ORIENTED_EDGE('',*,*,#506,.T.);
#366=ORIENTED_EDGE('',*,*,#504,.F.);
#367=ORIENTED_EDGE('',*,*,#510,.F.);
#368=ORIENTED_EDGE('',*,*,#507,.T.);
#369=ORIENTED_EDGE('',*,*,#509,.T.);
#370=ORIENTED_EDGE('',*,*,#500,.T.);
#371=ORIENTED_EDGE('',*,*,#511,.F.);
#372=ORIENTED_EDGE('',*,*,#512,.F.);
#373=ORIENTED_EDGE('',*,*,#513,.T.);
#374=ORIENTED_EDGE('',*,*,#499,.T.);
#375=ORIENTED_EDGE('',*,*,#406,.T.);
#376=ORIENTED_EDGE('',*,*,#470,.T.);
#377=ORIENTED_EDGE('',*,*,#514,.F.);
#378=ORIENTED_EDGE('',*,*,#515,.F.);
#379=ORIENTED_EDGE('',*,*,#511,.T.);
#380=ORIENTED_EDGE('',*,*,#469,.F.);
#381=ORIENTED_EDGE('',*,*,#516,.F.);
#382=ORIENTED_EDGE('',*,*,#517,.T.);
#383=ORIENTED_EDGE('',*,*,#514,.T.);
#384=ORIENTED_EDGE('',*,*,#518,.F.);
#385=ORIENTED_EDGE('',*,*,#512,.T.);
#386=ORIENTED_EDGE('',*,*,#515,.T.);
#387=ORIENTED_EDGE('',*,*,#517,.F.);
#388=ORIENTED_EDGE('',*,*,#478,.F.);
#389=ORIENTED_EDGE('',*,*,#481,.T.);
#390=ORIENTED_EDGE('',*,*,#473,.T.);
#391=ORIENTED_EDGE('',*,*,#484,.T.);
#392=ORIENTED_EDGE('',*,*,#487,.F.);
#393=ORIENTED_EDGE('',*,*,#494,.T.);
#394=ORIENTED_EDGE('',*,*,#492,.T.);
#395=ORIENTED_EDGE('',*,*,#497,.T.);
#396=ORIENTED_EDGE('',*,*,#508,.F.);
#397=ORIENTED_EDGE('',*,*,#510,.T.);
#398=ORIENTED_EDGE('',*,*,#503,.T.);
#399=ORIENTED_EDGE('',*,*,#501,.T.);
#400=ORIENTED_EDGE('',*,*,#513,.F.);
#401=ORIENTED_EDGE('',*,*,#518,.T.);
#402=ORIENTED_EDGE('',*,*,#516,.T.);
#403=ORIENTED_EDGE('',*,*,#468,.T.);
#404=ORIENTED_EDGE('',*,*,#519,.F.);
#405=ORIENTED_EDGE('',*,*,#519,.T.);
#406=EDGE_CURVE('',#520,#521,#594,.T.);
#407=EDGE_CURVE('',#522,#520,#18,.T.);
#408=EDGE_CURVE('',#523,#522,#595,.T.);
#409=EDGE_CURVE('',#523,#521,#19,.T.);
#410=EDGE_CURVE('',#524,#525,#596,.T.);
#411=EDGE_CURVE('',#526,#524,#20,.T.);
#412=EDGE_CURVE('',#527,#526,#597,.T.);
#413=EDGE_CURVE('',#527,#525,#21,.T.);
#414=EDGE_CURVE('',#528,#529,#598,.T.);
#415=EDGE_CURVE('',#528,#530,#22,.T.);
#416=EDGE_CURVE('',#531,#530,#599,.T.);
#417=EDGE_CURVE('',#529,#531,#23,.T.);
#418=EDGE_CURVE('',#532,#533,#24,.T.);
#419=EDGE_CURVE('',#534,#532,#25,.T.);
#420=EDGE_CURVE('',#534,#535,#26,.T.);
#421=EDGE_CURVE('',#535,#533,#27,.T.);
#422=EDGE_CURVE('',#532,#536,#28,.T.);
#423=EDGE_CURVE('',#537,#536,#29,.T.);
#424=EDGE_CURVE('',#534,#537,#30,.T.);
#425=EDGE_CURVE('',#536,#538,#31,.T.);
#426=EDGE_CURVE('',#539,#538,#32,.T.);
#427=EDGE_CURVE('',#537,#539,#33,.T.);
#428=EDGE_CURVE('',#523,#540,#34,.T.);
#429=EDGE_CURVE('',#522,#541,#35,.T.);
#430=EDGE_CURVE('',#541,#542,#600,.T.);
#431=EDGE_CURVE('',#527,#542,#36,.T.);
#432=EDGE_CURVE('',#526,#543,#37,.T.);
#433=EDGE_CURVE('',#543,#544,#601,.T.);
#434=EDGE_CURVE('',#531,#544,#38,.T.);
#435=EDGE_CURVE('',#530,#545,#39,.T.);
#436=EDGE_CURVE('',#545,#546,#602,.T.);
#437=EDGE_CURVE('',#547,#546,#40,.T.);
#438=EDGE_CURVE('',#547,#548,#603,.T.);
#439=EDGE_CURVE('',#548,#549,#41,.T.);
#440=EDGE_CURVE('',#549,#540,#604,.T.);
#441=EDGE_CURVE('',#550,#550,#605,.T.);
#442=EDGE_CURVE('',#533,#538,#42,.T.);
#443=EDGE_CURVE('',#535,#539,#43,.T.);
#444=EDGE_CURVE('',#541,#551,#44,.T.);
#445=EDGE_CURVE('',#542,#551,#45,.T.);
#446=EDGE_CURVE('',#543,#552,#46,.T.);
#447=EDGE_CURVE('',#552,#544,#47,.T.);
#448=EDGE_CURVE('',#553,#545,#48,.T.);
#449=EDGE_CURVE('',#553,#546,#49,.T.);
#450=EDGE_CURVE('',#554,#549,#50,.T.);
#451=EDGE_CURVE('',#540,#554,#51,.T.);
#452=EDGE_CURVE('',#555,#548,#52,.T.);
#453=EDGE_CURVE('',#556,#555,#53,.T.);
#454=EDGE_CURVE('',#556,#554,#54,.T.);
#455=EDGE_CURVE('',#521,#556,#55,.T.);
#456=EDGE_CURVE('',#520,#557,#56,.T.);
#457=EDGE_CURVE('',#557,#551,#57,.T.);
#458=EDGE_CURVE('',#525,#557,#58,.T.);
#459=EDGE_CURVE('',#524,#558,#59,.T.);
#460=EDGE_CURVE('',#558,#552,#60,.T.);
#461=EDGE_CURVE('',#558,#529,#61,.T.);
#462=EDGE_CURVE('',#559,#528,#62,.T.);
#463=EDGE_CURVE('',#559,#553,#63,.T.);
#464=EDGE_CURVE('',#559,#560,#64,.T.);
#465=EDGE_CURVE('',#560,#547,#65,.T.);
#466=EDGE_CURVE('',#555,#560,#606,.T.);
#467=EDGE_CURVE('',#561,#562,#66,.T.);
#468=EDGE_CURVE('',#563,#561,#607,.T.);
#469=EDGE_CURVE('',#563,#564,#67,.T.);
#470=EDGE_CURVE('',#521,#564,#608,.T.);
#471=EDGE_CURVE('',#562,#555,#609,.T.);
#472=EDGE_CURVE('',#565,#566,#68,.T.);
#473=EDGE_CURVE('',#567,#565,#69,.T.);
#474=EDGE_CURVE('',#567,#568,#70,.T.);
#475=EDGE_CURVE('',#568,#566,#71,.T.);
#476=EDGE_CURVE('',#569,#562,#72,.T.);
#477=EDGE_CURVE('',#570,#569,#73,.T.);
#478=EDGE_CURVE('',#570,#561,#74,.T.);
#479=EDGE_CURVE('',#560,#566,#610,.T.);
#480=EDGE_CURVE('',#569,#568,#611,.T.);
#481=EDGE_CURVE('',#570,#567,#612,.T.);
#482=EDGE_CURVE('',#571,#528,#613,.T.);
#483=EDGE_CURVE('',#572,#571,#75,.T.);
#484=EDGE_CURVE('',#565,#572,#614,.T.);
#485=EDGE_CURVE('',#573,#571,#76,.T.);
#486=EDGE_CURVE('',#574,#573,#77,.T.);
#487=EDGE_CURVE('',#574,#572,#78,.T.);
#488=EDGE_CURVE('',#529,#575,#615,.T.);
#489=EDGE_CURVE('',#576,#575,#79,.T.);
#490=EDGE_CURVE('',#573,#576,#616,.T.);
#491=EDGE_CURVE('',#577,#575,#80,.T.);
#492=EDGE_CURVE('',#578,#577,#81,.T.);
#493=EDGE_CURVE('',#578,#576,#82,.T.);
#494=EDGE_CURVE('',#574,#578,#617,.T.);
#495=EDGE_CURVE('',#579,#524,#618,.T.);
#496=EDGE_CURVE('',#580,#579,#83,.T.);
#497=EDGE_CURVE('',#577,#580,#619,.T.);
#498=EDGE_CURVE('',#525,#581,#620,.T.);
#499=EDGE_CURVE('',#582,#520,#621,.T.);
#500=EDGE_CURVE('',#583,#582,#84,.T.);
#501=EDGE_CURVE('',#584,#583,#622,.T.);
#502=EDGE_CURVE('',#584,#581,#85,.T.);
#503=EDGE_CURVE('',#585,#584,#86,.T.);
#504=EDGE_CURVE('',#585,#586,#87,.T.);
#505=EDGE_CURVE('',#586,#581,#88,.T.);
#506=EDGE_CURVE('',#587,#579,#89,.T.);
#507=EDGE_CURVE('',#588,#587,#90,.T.);
#508=EDGE_CURVE('',#588,#580,#91,.T.);
#509=EDGE_CURVE('',#587,#586,#623,.T.);
#510=EDGE_CURVE('',#588,#585,#624,.T.);
#511=EDGE_CURVE('',#589,#582,#92,.T.);
#512=EDGE_CURVE('',#590,#589,#93,.T.);
#513=EDGE_CURVE('',#590,#583,#94,.T.);
#514=EDGE_CURVE('',#591,#564,#95,.T.);
#515=EDGE_CURVE('',#589,#591,#625,.T.);
#516=EDGE_CURVE('',#592,#563,#96,.T.);
#517=EDGE_CURVE('',#592,#591,#97,.T.);
#518=EDGE_CURVE('',#590,#592,#626,.T.);
#519=EDGE_CURVE('',#593,#593,#627,.T.);
#520=VERTEX_POINT('',#1123);
#521=VERTEX_POINT('',#1124);
#522=VERTEX_POINT('',#1126);
#523=VERTEX_POINT('',#1128);
#524=VERTEX_POINT('',#1132);
#525=VERTEX_POINT('',#1133);
#526=VERTEX_POINT('',#1135);
#527=VERTEX_POINT('',#1137);
#528=VERTEX_POINT('',#1141);
#529=VERTEX_POINT('',#1142);
#530=VERTEX_POINT('',#1144);
#531=VERTEX_POINT('',#1146);
#532=VERTEX_POINT('',#1150);
#533=VERTEX_POINT('',#1151);
#534=VERTEX_POINT('',#1153);
#535=VERTEX_POINT('',#1155);
#536=VERTEX_POINT('',#1159);
#537=VERTEX_POINT('',#1161);
#538=VERTEX_POINT('',#1165);
#539=VERTEX_POINT('',#1167);
#540=VERTEX_POINT('',#1171);
#541=VERTEX_POINT('',#1173);
#542=VERTEX_POINT('',#1175);
#543=VERTEX_POINT('',#1178);
#544=VERTEX_POINT('',#1180);
#545=VERTEX_POINT('',#1183);
#546=VERTEX_POINT('',#1185);
#547=VERTEX_POINT('',#1187);
#548=VERTEX_POINT('',#1189);
#549=VERTEX_POINT('',#1191);
#550=VERTEX_POINT('',#1194);
#551=VERTEX_POINT('',#1200);
#552=VERTEX_POINT('',#1203);
#553=VERTEX_POINT('',#1206);
#554=VERTEX_POINT('',#1209);
#555=VERTEX_POINT('',#1214);
#556=VERTEX_POINT('',#1216);
#557=VERTEX_POINT('',#1222);
#558=VERTEX_POINT('',#1228);
#559=VERTEX_POINT('',#1234);
#560=VERTEX_POINT('',#1238);
#561=VERTEX_POINT('',#1244);
#562=VERTEX_POINT('',#1245);
#563=VERTEX_POINT('',#1247);
#564=VERTEX_POINT('',#1249);
#565=VERTEX_POINT('',#1254);
#566=VERTEX_POINT('',#1255);
#567=VERTEX_POINT('',#1257);
#568=VERTEX_POINT('',#1259);
#569=VERTEX_POINT('',#1263);
#570=VERTEX_POINT('',#1265);
#571=VERTEX_POINT('',#1274);
#572=VERTEX_POINT('',#1276);
#573=VERTEX_POINT('',#1280);
#574=VERTEX_POINT('',#1282);
#575=VERTEX_POINT('',#1286);
#576=VERTEX_POINT('',#1288);
#577=VERTEX_POINT('',#1292);
#578=VERTEX_POINT('',#1294);
#579=VERTEX_POINT('',#1300);
#580=VERTEX_POINT('',#1302);
#581=VERTEX_POINT('',#1306);
#582=VERTEX_POINT('',#1308);
#583=VERTEX_POINT('',#1310);
#584=VERTEX_POINT('',#1312);
#585=VERTEX_POINT('',#1316);
#586=VERTEX_POINT('',#1318);
#587=VERTEX_POINT('',#1322);
#588=VERTEX_POINT('',#1324);
#589=VERTEX_POINT('',#1332);
#590=VERTEX_POINT('',#1334);
#591=VERTEX_POINT('',#1338);
#592=VERTEX_POINT('',#1342);
#593=VERTEX_POINT('',#1348);
#594=CIRCLE('',#814,0.06);
#595=CIRCLE('',#815,0.0625);
#596=CIRCLE('',#817,0.06);
#597=CIRCLE('',#818,0.0625);
#598=CIRCLE('',#820,0.06);
#599=CIRCLE('',#821,0.0625);
#600=CIRCLE('',#826,0.0625);
#601=CIRCLE('',#827,0.0625);
#602=CIRCLE('',#828,0.0625);
#603=CIRCLE('',#829,0.0625);
#604=CIRCLE('',#830,0.0625);
#605=CIRCLE('',#831,0.0625);
#606=CIRCLE('',#844,0.06);
#607=CIRCLE('',#846,0.01);
#608=CIRCLE('',#847,0.06);
#609=CIRCLE('',#848,0.06);
#610=CIRCLE('',#852,0.06);
#611=CIRCLE('',#853,0.06);
#612=CIRCLE('',#855,0.01);
#613=CIRCLE('',#857,0.06);
#614=CIRCLE('',#858,0.01);
#615=CIRCLE('',#861,0.06);
#616=CIRCLE('',#862,0.06);
#617=CIRCLE('',#865,0.01);
#618=CIRCLE('',#867,0.06);
#619=CIRCLE('',#868,0.01);
#620=CIRCLE('',#870,0.06);
#621=CIRCLE('',#871,0.06);
#622=CIRCLE('',#872,0.01);
#623=CIRCLE('',#876,0.06);
#624=CIRCLE('',#878,0.01);
#625=CIRCLE('',#881,0.06);
#626=CIRCLE('',#884,0.01);
#627=CIRCLE('',#886,0.01);
#628=EDGE_LOOP('',(#178,#179,#180,#181));
#629=EDGE_LOOP('',(#182,#183,#184,#185));
#630=EDGE_LOOP('',(#186,#187,#188,#189));
#631=EDGE_LOOP('',(#190,#191,#192,#193));
#632=EDGE_LOOP('',(#194,#195,#196,#197));
#633=EDGE_LOOP('',(#198,#199,#200,#201));
#634=EDGE_LOOP('',(#202,#203,#204,#205,#206,#207,#208,#209,#210,#211,#212,#213,#214,#215,#216,#217));
#635=EDGE_LOOP('',(#218));
#636=EDGE_LOOP('',(#219,#220,#221,#222));
#637=EDGE_LOOP('',(#223,#224,#225));
#638=EDGE_LOOP('',(#226,#227,#228));
#639=EDGE_LOOP('',(#229,#230,#231));
#640=EDGE_LOOP('',(#232,#233,#234));
#641=EDGE_LOOP('',(#235,#236,#237,#238));
#642=EDGE_LOOP('',(#239));
#643=EDGE_LOOP('',(#240,#241,#242,#243));
#644=EDGE_LOOP('',(#244,#245,#246,#247,#248));
#645=EDGE_LOOP('',(#249,#250,#251,#252,#253));
#646=EDGE_LOOP('',(#254,#255,#256,#257,#258));
#647=EDGE_LOOP('',(#259,#260,#261,#262,#263));
#648=EDGE_LOOP('',(#264,#265,#266,#267,#268));
#649=EDGE_LOOP('',(#269,#270,#271,#272,#273));
#650=EDGE_LOOP('',(#274,#275,#276,#277,#278));
#651=EDGE_LOOP('',(#279,#280,#281,#282,#283));
#652=EDGE_LOOP('',(#284,#285,#286,#287));
#653=EDGE_LOOP('',(#288,#289,#290,#291,#292,#293,#294));
#654=EDGE_LOOP('',(#295,#296,#297,#298));
#655=EDGE_LOOP('',(#299,#300,#301,#302));
#656=EDGE_LOOP('',(#303,#304,#305,#306,#307,#308));
#657=EDGE_LOOP('',(#309,#310,#311,#312));
#658=EDGE_LOOP('',(#313,#314,#315,#316,#317,#318,#319));
#659=EDGE_LOOP('',(#320,#321,#322,#323));
#660=EDGE_LOOP('',(#324,#325,#326,#327,#328,#329));
#661=EDGE_LOOP('',(#330,#331,#332,#333));
#662=EDGE_LOOP('',(#334,#335,#336,#337));
#663=EDGE_LOOP('',(#338,#339,#340,#341,#342,#343,#344));
#664=EDGE_LOOP('',(#345,#346,#347,#348,#349,#350,#351));
#665=EDGE_LOOP('',(#352,#353,#354,#355));
#666=EDGE_LOOP('',(#356,#357,#358,#359));
#667=EDGE_LOOP('',(#360,#361,#362,#363,#364,#365));
#668=EDGE_LOOP('',(#366,#367,#368,#369));
#669=EDGE_LOOP('',(#370,#371,#372,#373));
#670=EDGE_LOOP('',(#374,#375,#376,#377,#378,#379));
#671=EDGE_LOOP('',(#380,#381,#382,#383));
#672=EDGE_LOOP('',(#384,#385,#386,#387));
#673=EDGE_LOOP('',(#388,#389,#390,#391,#392,#393,#394,#395,#396,#397,#398,#399,#400,#401,#402,#403));
#674=EDGE_LOOP('',(#404));
#675=EDGE_LOOP('',(#405));
#676=FACE_BOUND('',#628,.T.);
#677=FACE_BOUND('',#629,.T.);
#678=FACE_BOUND('',#630,.T.);
#679=FACE_BOUND('',#631,.T.);
#680=FACE_BOUND('',#632,.T.);
#681=FACE_BOUND('',#633,.T.);
#682=FACE_BOUND('',#634,.T.);
#683=FACE_BOUND('',#635,.T.);
#684=FACE_BOUND('',#636,.T.);
#685=FACE_BOUND('',#637,.T.);
#686=FACE_BOUND('',#638,.T.);
#687=FACE_BOUND('',#639,.T.);
#688=FACE_BOUND('',#640,.T.);
#689=FACE_BOUND('',#641,.T.);
#690=FACE_BOUND('',#642,.T.);
#691=FACE_BOUND('',#643,.T.);
#692=FACE_BOUND('',#644,.T.);
#693=FACE_BOUND('',#645,.T.);
#694=FACE_BOUND('',#646,.T.);
#695=FACE_BOUND('',#647,.T.);
#696=FACE_BOUND('',#648,.T.);
#697=FACE_BOUND('',#649,.T.);
#698=FACE_BOUND('',#650,.T.);
#699=FACE_BOUND('',#651,.T.);
#700=FACE_BOUND('',#652,.T.);
#701=FACE_BOUND('',#653,.T.);
#702=FACE_BOUND('',#654,.T.);
#703=FACE_BOUND('',#655,.T.);
#704=FACE_BOUND('',#656,.T.);
#705=FACE_BOUND('',#657,.T.);
#706=FACE_BOUND('',#658,.T.);
#707=FACE_BOUND('',#659,.T.);
#708=FACE_BOUND('',#660,.T.);
#709=FACE_BOUND('',#661,.T.);
#710=FACE_BOUND('',#662,.T.);
#711=FACE_BOUND('',#663,.T.);
#712=FACE_BOUND('',#664,.T.);
#713=FACE_BOUND('',#665,.T.);
#714=FACE_BOUND('',#666,.T.);
#715=FACE_BOUND('',#667,.T.);
#716=FACE_BOUND('',#668,.T.);
#717=FACE_BOUND('',#669,.T.);
#718=FACE_BOUND('',#670,.T.);
#719=FACE_BOUND('',#671,.T.);
#720=FACE_BOUND('',#672,.T.);
#721=FACE_BOUND('',#673,.T.);
#722=FACE_BOUND('',#674,.T.);
#723=FACE_BOUND('',#675,.T.);
#724=PLANE('',#813);
#725=PLANE('',#816);
#726=PLANE('',#819);
#727=PLANE('',#822);
#728=PLANE('',#823);
#729=PLANE('',#824);
#730=PLANE('',#832);
#731=PLANE('',#833);
#732=PLANE('',#834);
#733=PLANE('',#835);
#734=PLANE('',#836);
#735=PLANE('',#837);
#736=PLANE('',#838);
#737=PLANE('',#839);
#738=PLANE('',#840);
#739=PLANE('',#841);
#740=PLANE('',#842);
#741=PLANE('',#843);
#742=PLANE('',#845);
#743=PLANE('',#849);
#744=PLANE('',#850);
#745=PLANE('',#854);
#746=PLANE('',#856);
#747=PLANE('',#859);
#748=PLANE('',#863);
#749=PLANE('',#864);
#750=PLANE('',#866);
#751=PLANE('',#869);
#752=PLANE('',#873);
#753=PLANE('',#874);
#754=PLANE('',#877);
#755=PLANE('',#879);
#756=PLANE('',#882);
#757=PLANE('',#883);
#758=PLANE('',#887);
#759=ADVANCED_FACE('',(#676),#724,.F.);
#760=ADVANCED_FACE('',(#677),#725,.F.);
#761=ADVANCED_FACE('',(#678),#726,.F.);
#762=ADVANCED_FACE('',(#679),#727,.T.);
#763=ADVANCED_FACE('',(#680),#728,.F.);
#764=ADVANCED_FACE('',(#681),#729,.F.);
#765=ADVANCED_FACE('',(#682,#683),#12,.F.);
#766=ADVANCED_FACE('',(#684),#730,.T.);
#767=ADVANCED_FACE('',(#685,#686,#687,#688,#689),#731,.T.);
#768=ADVANCED_FACE('',(#690,#691),#732,.F.);
#769=ADVANCED_FACE('',(#692),#733,.F.);
#770=ADVANCED_FACE('',(#693),#734,.F.);
#771=ADVANCED_FACE('',(#694),#735,.T.);
#772=ADVANCED_FACE('',(#695),#736,.F.);
#773=ADVANCED_FACE('',(#696),#737,.T.);
#774=ADVANCED_FACE('',(#697),#738,.T.);
#775=ADVANCED_FACE('',(#698),#739,.F.);
#776=ADVANCED_FACE('',(#699),#740,.T.);
#777=ADVANCED_FACE('',(#700),#741,.F.);
#778=ADVANCED_FACE('',(#701),#742,.F.);
#779=ADVANCED_FACE('',(#702),#743,.T.);
#780=ADVANCED_FACE('',(#703),#744,.F.);
#781=ADVANCED_FACE('',(#704),#13,.T.);
#782=ADVANCED_FACE('',(#705),#745,.T.);
#783=ADVANCED_FACE('',(#706),#746,.F.);
#784=ADVANCED_FACE('',(#707),#747,.F.);
#785=ADVANCED_FACE('',(#708),#14,.T.);
#786=ADVANCED_FACE('',(#709),#748,.T.);
#787=ADVANCED_FACE('',(#710),#749,.T.);
#788=ADVANCED_FACE('',(#711),#750,.F.);
#789=ADVANCED_FACE('',(#712),#751,.F.);
#790=ADVANCED_FACE('',(#713),#752,.T.);
#791=ADVANCED_FACE('',(#714),#753,.F.);
#792=ADVANCED_FACE('',(#715),#15,.T.);
#793=ADVANCED_FACE('',(#716),#754,.T.);
#794=ADVANCED_FACE('',(#717),#755,.F.);
#795=ADVANCED_FACE('',(#718),#16,.T.);
#796=ADVANCED_FACE('',(#719),#756,.T.);
#797=ADVANCED_FACE('',(#720),#757,.T.);
#798=ADVANCED_FACE('',(#721,#722),#17,.T.);
#799=ADVANCED_FACE('',(#723),#758,.T.);
#800=CLOSED_SHELL('',(#759,#760,#761,#762,#763,#764,#765,#766,#767,#768,#769,#770,#771,#772,#773,#774,#775,#776,#777,#778,#779,#780,#781,#782,#783,#784,#785,#786,#787,#788,#789,#790,#791,#792,#793,#794,#795,#796,#797,#798,#799));
#801=STYLED_ITEM('',(#802),#809);
#802=PRESENTATION_STYLE_ASSIGNMENT((#803));
#803=SURFACE_STYLE_USAGE(.BOTH.,#804);
#804=SURFACE_SIDE_STYLE('',(#805));
#805=SURFACE_STYLE_FILL_AREA(#806);
#806=FILL_AREA_STYLE('',(#807));
#807=FILL_AREA_STYLE_COLOUR('',#808);
#808=COLOUR_RGB('',0.615686274509804,0.811764705882353,0.929411764705882);
#809=MANIFOLD_SOLID_BREP('Part 1',#800);
#810=SHAPE_DEFINITION_REPRESENTATION(#1356,#811);
#811=SHAPE_REPRESENTATION('Part 1',(#812),#1351);
#812=AXIS2_PLACEMENT_3D('',#1120,#888,#889);
#813=AXIS2_PLACEMENT_3D('',#1121,#890,#891);
#814=AXIS2_PLACEMENT_3D('',#1122,#892,#893);
#815=AXIS2_PLACEMENT_3D('',#1127,#895,#896);
#816=AXIS2_PLACEMENT_3D('',#1130,#898,#899);
#817=AXIS2_PLACEMENT_3D('',#1131,#900,#901);
#818=AXIS2_PLACEMENT_3D('',#1136,#903,#904);
#819=AXIS2_PLACEMENT_3D('',#1139,#906,#907);
#820=AXIS2_PLACEMENT_3D('',#1140,#908,#909);
#821=AXIS2_PLACEMENT_3D('',#1145,#911,#912);
#822=AXIS2_PLACEMENT_3D('',#1148,#914,#915);
#823=AXIS2_PLACEMENT_3D('',#1157,#920,#921);
#824=AXIS2_PLACEMENT_3D('',#1163,#925,#926);
#825=AXIS2_PLACEMENT_3D('',#1169,#930,#931);
#826=AXIS2_PLACEMENT_3D('',#1174,#934,#935);
#827=AXIS2_PLACEMENT_3D('',#1179,#938,#939);
#828=AXIS2_PLACEMENT_3D('',#1184,#942,#943);
#829=AXIS2_PLACEMENT_3D('',#1188,#945,#946);
#830=AXIS2_PLACEMENT_3D('',#1192,#948,#949);
#831=AXIS2_PLACEMENT_3D('',#1193,#950,#951);
#832=AXIS2_PLACEMENT_3D('',#1195,#952,#953);
#833=AXIS2_PLACEMENT_3D('',#1198,#956,#957);
#834=AXIS2_PLACEMENT_3D('',#1211,#966,#967);
#835=AXIS2_PLACEMENT_3D('',#1212,#968,#969);
#836=AXIS2_PLACEMENT_3D('',#1218,#973,#974);
#837=AXIS2_PLACEMENT_3D('',#1220,#976,#977);
#838=AXIS2_PLACEMENT_3D('',#1224,#980,#981);
#839=AXIS2_PLACEMENT_3D('',#1226,#983,#984);
#840=AXIS2_PLACEMENT_3D('',#1230,#987,#988);
#841=AXIS2_PLACEMENT_3D('',#1232,#990,#991);
#842=AXIS2_PLACEMENT_3D('',#1236,#994,#995);
#843=AXIS2_PLACEMENT_3D('',#1240,#998,#999);
#844=AXIS2_PLACEMENT_3D('',#1241,#1000,#1001);
#845=AXIS2_PLACEMENT_3D('',#1242,#1002,#1003);
#846=AXIS2_PLACEMENT_3D('',#1246,#1005,#1006);
#847=AXIS2_PLACEMENT_3D('',#1250,#1008,#1009);
#848=AXIS2_PLACEMENT_3D('',#1251,#1010,#1011);
#849=AXIS2_PLACEMENT_3D('',#1252,#1012,#1013);
#850=AXIS2_PLACEMENT_3D('',#1261,#1018,#1019);
#851=AXIS2_PLACEMENT_3D('',#1267,#1023,#1024);
#852=AXIS2_PLACEMENT_3D('',#1268,#1025,#1026);
#853=AXIS2_PLACEMENT_3D('',#1269,#1027,#1028);
#854=AXIS2_PLACEMENT_3D('',#1270,#1029,#1030);
#855=AXIS2_PLACEMENT_3D('',#1271,#1031,#1032);
#856=AXIS2_PLACEMENT_3D('',#1272,#1033,#1034);
#857=AXIS2_PLACEMENT_3D('',#1273,#1035,#1036);
#858=AXIS2_PLACEMENT_3D('',#1277,#1038,#1039);
#859=AXIS2_PLACEMENT_3D('',#1278,#1040,#1041);
#860=AXIS2_PLACEMENT_3D('',#1284,#1045,#1046);
#861=AXIS2_PLACEMENT_3D('',#1285,#1047,#1048);
#862=AXIS2_PLACEMENT_3D('',#1289,#1050,#1051);
#863=AXIS2_PLACEMENT_3D('',#1290,#1052,#1053);
#864=AXIS2_PLACEMENT_3D('',#1296,#1057,#1058);
#865=AXIS2_PLACEMENT_3D('',#1297,#1059,#1060);
#866=AXIS2_PLACEMENT_3D('',#1298,#1061,#1062);
#867=AXIS2_PLACEMENT_3D('',#1299,#1063,#1064);
#868=AXIS2_PLACEMENT_3D('',#1303,#1066,#1067);
#869=AXIS2_PLACEMENT_3D('',#1304,#1068,#1069);
#870=AXIS2_PLACEMENT_3D('',#1305,#1070,#1071);
#871=AXIS2_PLACEMENT_3D('',#1307,#1072,#1073);
#872=AXIS2_PLACEMENT_3D('',#1311,#1075,#1076);
#873=AXIS2_PLACEMENT_3D('',#1314,#1078,#1079);
#874=AXIS2_PLACEMENT_3D('',#1320,#1083,#1084);
#875=AXIS2_PLACEMENT_3D('',#1326,#1088,#1089);
#876=AXIS2_PLACEMENT_3D('',#1327,#1090,#1091);
#877=AXIS2_PLACEMENT_3D('',#1328,#1092,#1093);
#878=AXIS2_PLACEMENT_3D('',#1329,#1094,#1095);
#879=AXIS2_PLACEMENT_3D('',#1330,#1096,#1097);
#880=AXIS2_PLACEMENT_3D('',#1336,#1101,#1102);
#881=AXIS2_PLACEMENT_3D('',#1339,#1104,#1105);
#882=AXIS2_PLACEMENT_3D('',#1340,#1106,#1107);
#883=AXIS2_PLACEMENT_3D('',#1344,#1110,#1111);
#884=AXIS2_PLACEMENT_3D('',#1345,#1112,#1113);
#885=AXIS2_PLACEMENT_3D('',#1346,#1114,#1115);
#886=AXIS2_PLACEMENT_3D('',#1347,#1116,#1117);
#887=AXIS2_PLACEMENT_3D('',#1349,#1118,#1119);
#888=DIRECTION('',(0.,0.,1.));
#889=DIRECTION('',(1.,0.,0.));
#890=DIRECTION('',(0.,0.,1.));
#891=DIRECTION('',(1.,0.,0.));
#892=DIRECTION('',(0.,0.,-1.));
#893=DIRECTION('',(-1.,0.,0.));
#894=DIRECTION('',(-2.1350442781253E-16,-1.,0.));
#895=DIRECTION('',(0.,0.,1.));
#896=DIRECTION('',(1.,0.,0.));
#897=DIRECTION('',(-2.1350442781253E-16,-1.,0.));
#898=DIRECTION('',(0.,0.,1.));
#899=DIRECTION('',(1.,0.,0.));
#900=DIRECTION('',(0.,0.,-1.));
#901=DIRECTION('',(-1.,0.,0.));
#902=DIRECTION('',(1.,-2.1350442781253E-16,0.));
#903=DIRECTION('',(0.,0.,1.));
#904=DIRECTION('',(1.,0.,0.));
#905=DIRECTION('',(1.,-2.1350442781253E-16,0.));
#906=DIRECTION('',(0.,0.,1.));
#907=DIRECTION('',(1.,0.,0.));
#908=DIRECTION('',(0.,0.,-1.));
#909=DIRECTION('',(-1.,0.,0.));
#910=DIRECTION('',(-2.1350442781253E-16,-1.,0.));
#911=DIRECTION('',(0.,0.,1.));
#912=DIRECTION('',(1.,0.,0.));
#913=DIRECTION('',(-2.1350442781253E-16,-1.,0.));
#914=DIRECTION('',(0.,1.,0.));
#915=DIRECTION('',(0.,0.,1.));
#916=DIRECTION('',(1.,0.,0.));
#917=DIRECTION('',(0.,0.,-1.));
#918=DIRECTION('',(1.,0.,0.));
#919=DIRECTION('',(0.,0.,-1.));
#920=DIRECTION('',(1.,-1.98254111540206E-16,0.));
#921=DIRECTION('',(1.98254111540206E-16,1.,0.));
#922=DIRECTION('',(-1.98254111540206E-16,-1.,0.));
#923=DIRECTION('',(0.,0.,-1.));
#924=DIRECTION('',(-1.98254111540206E-16,-1.,0.));
#925=DIRECTION('',(0.,1.,0.));
#926=DIRECTION('',(0.,0.,1.));
#927=DIRECTION('',(1.,0.,0.));
#928=DIRECTION('',(0.,0.,-1.));
#929=DIRECTION('',(1.,0.,0.));
#930=DIRECTION('',(0.,0.,-1.));
#931=DIRECTION('',(-1.,0.,0.));
#932=DIRECTION('',(0.,0.,1.));
#933=DIRECTION('',(0.,0.,1.));
#934=DIRECTION('',(0.,0.,1.));
#935=DIRECTION('',(1.,0.,0.));
#936=DIRECTION('',(0.,0.,1.));
#937=DIRECTION('',(0.,0.,1.));
#938=DIRECTION('',(0.,0.,1.));
#939=DIRECTION('',(1.,0.,0.));
#940=DIRECTION('',(0.,0.,1.));
#941=DIRECTION('',(0.,0.,1.));
#942=DIRECTION('',(0.,0.,1.));
#943=DIRECTION('',(1.,0.,0.));
#944=DIRECTION('',(0.,0.,1.));
#945=DIRECTION('',(0.,0.,1.));
#946=DIRECTION('',(1.,0.,0.));
#947=DIRECTION('',(0.,0.,1.));
#948=DIRECTION('',(0.,0.,1.));
#949=DIRECTION('',(1.,0.,0.));
#950=DIRECTION('',(0.,0.,1.));
#951=DIRECTION('',(1.,0.,0.));
#952=DIRECTION('',(1.,-1.98254111540206E-16,0.));
#953=DIRECTION('',(1.98254111540206E-16,1.,0.));
#954=DIRECTION('',(-1.98254111540206E-16,-1.,0.));
#955=DIRECTION('',(-1.98254111540206E-16,-1.,0.));
#956=DIRECTION('',(0.,0.,1.));
#957=DIRECTION('',(1.,0.,0.));
#958=DIRECTION('',(-2.1350442781253E-16,-1.,0.));
#959=DIRECTION('',(1.,-2.1350442781253E-16,0.));
#960=DIRECTION('',(1.,-2.1350442781253E-16,0.));
#961=DIRECTION('',(-2.1350442781253E-16,-1.,0.));
#962=DIRECTION('',(-2.1350442781253E-16,-1.,0.));
#963=DIRECTION('',(1.,-2.1350442781253E-16,0.));
#964=DIRECTION('',(1.,-2.1350442781253E-16,0.));
#965=DIRECTION('',(-2.1350442781253E-16,-1.,0.));
#966=DIRECTION('',(0.,0.,1.));
#967=DIRECTION('',(1.,0.,0.));
#968=DIRECTION('',(-2.1350442781253E-16,-1.,0.));
#969=DIRECTION('',(1.,-2.1350442781253E-16,0.));
#970=DIRECTION('',(1.,-2.1350442781253E-16,0.));
#971=DIRECTION('',(1.,-2.1350442781253E-16,0.));
#972=DIRECTION('',(0.,0.,1.));
#973=DIRECTION('',(-1.,2.1350442781253E-16,0.));
#974=DIRECTION('',(-2.1350442781253E-16,-1.,0.));
#975=DIRECTION('',(-2.1350442781253E-16,-1.,0.));
#976=DIRECTION('',(-1.,2.1350442781253E-16,0.));
#977=DIRECTION('',(-2.1350442781253E-16,-1.,0.));
#978=DIRECTION('',(-2.1350442781253E-16,-1.,0.));
#979=DIRECTION('',(0.,0.,1.));
#980=DIRECTION('',(-2.1350442781253E-16,-1.,0.));
#981=DIRECTION('',(1.,-2.1350442781253E-16,0.));
#982=DIRECTION('',(1.,-2.1350442781253E-16,0.));
#983=DIRECTION('',(-2.1350442781253E-16,-1.,0.));
#984=DIRECTION('',(1.,-2.1350442781253E-16,0.));
#985=DIRECTION('',(1.,-2.1350442781253E-16,0.));
#986=DIRECTION('',(0.,0.,1.));
#987=DIRECTION('',(-1.,2.1350442781253E-16,0.));
#988=DIRECTION('',(-2.1350442781253E-16,-1.,0.));
#989=DIRECTION('',(-2.1350442781253E-16,-1.,0.));
#990=DIRECTION('',(-1.,2.1350442781253E-16,0.));
#991=DIRECTION('',(-2.1350442781253E-16,-1.,0.));
#992=DIRECTION('',(-2.1350442781253E-16,-1.,0.));
#993=DIRECTION('',(0.,0.,1.));
#994=DIRECTION('',(-2.1350442781253E-16,-1.,0.));
#995=DIRECTION('',(1.,-2.1350442781253E-16,0.));
#996=DIRECTION('',(1.,-2.1350442781253E-16,0.));
#997=DIRECTION('',(1.,-2.1350442781253E-16,0.));
#998=DIRECTION('',(0.,0.,1.));
#999=DIRECTION('',(1.,0.,0.));
#1000=DIRECTION('',(0.,0.,-1.));
#1001=DIRECTION('',(-1.,0.,0.));
#1002=DIRECTION('',(0.,0.,-1.));
#1003=DIRECTION('',(1.,0.,0.));
#1004=DIRECTION('',(0.766044443118978,0.64278760968654,0.));
#1005=DIRECTION('',(0.,0.,-1.));
#1006=DIRECTION('',(-1.,0.,0.));
#1007=DIRECTION('',(0.64278760968654,0.766044443118978,0.));
#1008=DIRECTION('',(0.,0.,-1.));
#1009=DIRECTION('',(-1.,0.,0.));
#1010=DIRECTION('',(0.,0.,-1.));
#1011=DIRECTION('',(-1.,0.,0.));
#1012=DIRECTION('',(-0.642787609686539,-0.766044443118978,0.));
#1013=DIRECTION('',(0.766044443118978,-0.642787609686539,0.));
#1014=DIRECTION('',(0.766044443118978,-0.64278760968654,0.));
#1015=DIRECTION('',(0.,0.,1.));
#1016=DIRECTION('',(0.766044443118978,-0.64278760968654,0.));
#1017=DIRECTION('',(0.,0.,1.));
#1018=DIRECTION('',(0.642787609686539,-0.766044443118978,0.));
#1019=DIRECTION('',(0.766044443118978,0.642787609686539,0.));
#1020=DIRECTION('',(0.,0.,1.));
#1021=DIRECTION('',(0.766044443118978,0.64278760968654,0.));
#1022=DIRECTION('',(0.,0.,1.));
#1023=DIRECTION('',(0.,0.,1.));
#1024=DIRECTION('',(1.,0.,0.));
#1025=DIRECTION('',(0.,0.,-1.));
#1026=DIRECTION('',(-1.,0.,0.));
#1027=DIRECTION('',(0.,0.,-1.));
#1028=DIRECTION('',(-1.,0.,0.));
#1029=DIRECTION('',(0.,0.,-1.));
#1030=DIRECTION('',(1.,0.,0.));
#1031=DIRECTION('',(0.,0.,-1.));
#1032=DIRECTION('',(-1.,0.,0.));
#1033=DIRECTION('',(0.,0.,-1.));
#1034=DIRECTION('',(1.,0.,0.));
#1035=DIRECTION('',(0.,0.,-1.));
#1036=DIRECTION('',(-1.,0.,0.));
#1037=DIRECTION('',(0.64278760968654,-0.766044443118978,0.));
#1038=DIRECTION('',(0.,0.,-1.));
#1039=DIRECTION('',(-1.,0.,0.));
#1040=DIRECTION('',(-0.766044443118978,-0.64278760968654,0.));
#1041=DIRECTION('',(0.64278760968654,-0.766044443118978,0.));
#1042=DIRECTION('',(0.,0.,1.));
#1043=DIRECTION('',(0.64278760968654,-0.766044443118978,0.));
#1044=DIRECTION('',(0.,0.,1.));
#1045=DIRECTION('',(0.,0.,1.));
#1046=DIRECTION('',(1.,0.,0.));
#1047=DIRECTION('',(0.,0.,-1.));
#1048=DIRECTION('',(-1.,0.,0.));
#1049=DIRECTION('',(0.,0.,1.));
#1050=DIRECTION('',(0.,0.,-1.));
#1051=DIRECTION('',(-1.,0.,0.));
#1052=DIRECTION('',(-0.766044443118978,0.64278760968654,0.));
#1053=DIRECTION('',(-0.64278760968654,-0.766044443118978,0.));
#1054=DIRECTION('',(-0.64278760968654,-0.766044443118978,0.));
#1055=DIRECTION('',(0.,0.,1.));
#1056=DIRECTION('',(-0.64278760968654,-0.766044443118978,0.));
#1057=DIRECTION('',(0.,0.,-1.));
#1058=DIRECTION('',(1.,0.,0.));
#1059=DIRECTION('',(0.,0.,-1.));
#1060=DIRECTION('',(-1.,0.,0.));
#1061=DIRECTION('',(0.,0.,-1.));
#1062=DIRECTION('',(1.,0.,0.));
#1063=DIRECTION('',(0.,0.,-1.));
#1064=DIRECTION('',(-1.,0.,0.));
#1065=DIRECTION('',(-0.766044443118978,-0.64278760968654,0.));
#1066=DIRECTION('',(0.,0.,-1.));
#1067=DIRECTION('',(-1.,0.,0.));
#1068=DIRECTION('',(0.,0.,-1.));
#1069=DIRECTION('',(1.,0.,0.));
#1070=DIRECTION('',(0.,0.,-1.));
#1071=DIRECTION('',(-1.,0.,0.));
#1072=DIRECTION('',(0.,0.,-1.));
#1073=DIRECTION('',(-1.,0.,0.));
#1074=DIRECTION('',(-0.64278760968654,0.766044443118978,0.));
#1075=DIRECTION('',(0.,0.,-1.));
#1076=DIRECTION('',(-1.,0.,0.));
#1077=DIRECTION('',(-0.766044443118978,0.64278760968654,0.));
#1078=DIRECTION('',(0.642787609686539,0.766044443118978,0.));
#1079=DIRECTION('',(-0.766044443118978,0.642787609686539,0.));
#1080=DIRECTION('',(0.,0.,1.));
#1081=DIRECTION('',(-0.766044443118978,0.64278760968654,0.));
#1082=DIRECTION('',(0.,0.,1.));
#1083=DIRECTION('',(-0.642787609686539,0.766044443118978,0.));
#1084=DIRECTION('',(-0.766044443118978,-0.642787609686539,0.));
#1085=DIRECTION('',(0.,0.,1.));
#1086=DIRECTION('',(-0.766044443118978,-0.64278760968654,0.));
#1087=DIRECTION('',(0.,0.,1.));
#1088=DIRECTION('',(0.,0.,1.));
#1089=DIRECTION('',(1.,0.,0.));
#1090=DIRECTION('',(0.,0.,-1.));
#1091=DIRECTION('',(-1.,0.,0.));
#1092=DIRECTION('',(0.,0.,-1.));
#1093=DIRECTION('',(1.,0.,0.));
#1094=DIRECTION('',(0.,0.,-1.));
#1095=DIRECTION('',(-1.,0.,0.));
#1096=DIRECTION('',(0.766044443118978,0.642787609686539,0.));
#1097=DIRECTION('',(-0.642787609686539,0.766044443118978,0.));
#1098=DIRECTION('',(0.,0.,1.));
#1099=DIRECTION('',(-0.64278760968654,0.766044443118978,0.));
#1100=DIRECTION('',(0.,0.,1.));
#1101=DIRECTION('',(0.,0.,1.));
#1102=DIRECTION('',(1.,0.,0.));
#1103=DIRECTION('',(0.,0.,1.));
#1104=DIRECTION('',(0.,0.,-1.));
#1105=DIRECTION('',(-1.,0.,0.));
#1106=DIRECTION('',(0.766044443118978,-0.642787609686539,0.));
#1107=DIRECTION('',(0.642787609686539,0.766044443118978,0.));
#1108=DIRECTION('',(0.,0.,1.));
#1109=DIRECTION('',(0.64278760968654,0.766044443118978,0.));
#1110=DIRECTION('',(0.,0.,-1.));
#1111=DIRECTION('',(1.,0.,0.));
#1112=DIRECTION('',(0.,0.,-1.));
#1113=DIRECTION('',(-1.,0.,0.));
#1114=DIRECTION('',(0.,0.,1.));
#1115=DIRECTION('',(1.,0.,0.));
#1116=DIRECTION('',(0.,0.,-1.));
#1117=DIRECTION('',(-1.,0.,0.));
#1118=DIRECTION('',(0.,0.,-1.));
#1119=DIRECTION('',(1.,0.,0.));
#1120=CARTESIAN_POINT('',(0.,0.,0.));
#1121=CARTESIAN_POINT('',(0.,-1.38777878078145E-17,0.008));
#1122=CARTESIAN_POINT('',(-3.46944695195361E-18,0.,0.008));
#1123=CARTESIAN_POINT('',(-0.005,0.059791303715507,0.008));
#1124=CARTESIAN_POINT('',(0.005,0.059791303715507,0.008));
#1125=CARTESIAN_POINT('',(-0.005,0.0375,0.008));
#1126=CARTESIAN_POINT('',(-0.005,0.0622996789718856,0.008));
#1127=CARTESIAN_POINT('',(0.,3.82702124733548E-18,0.008));
#1128=CARTESIAN_POINT('',(0.005,0.0622996789718856,0.008));
#1129=CARTESIAN_POINT('',(0.005,0.0375,0.008));
#1130=CARTESIAN_POINT('',(0.,-1.38777878078145E-17,0.008));
#1131=CARTESIAN_POINT('',(0.,0.,0.008));
#1132=CARTESIAN_POINT('',(-0.059791303715507,-0.005,0.008));
#1133=CARTESIAN_POINT('',(-0.059791303715507,0.005,0.008));
#1134=CARTESIAN_POINT('',(-0.0375,-0.005,0.008));
#1135=CARTESIAN_POINT('',(-0.0622996789718856,-0.005,0.008));
#1136=CARTESIAN_POINT('',(0.,3.82702124733548E-18,0.008));
#1137=CARTESIAN_POINT('',(-0.0622996789718856,0.005,0.008));
#1138=CARTESIAN_POINT('',(-0.0375,0.005,0.008));
#1139=CARTESIAN_POINT('',(0.,-1.38777878078145E-17,0.008));
#1140=CARTESIAN_POINT('',(-3.46944695195361E-18,3.46944695195361E-18,0.008));
#1141=CARTESIAN_POINT('',(0.005,-0.059791303715507,0.008));
#1142=CARTESIAN_POINT('',(-0.005,-0.059791303715507,0.008));
#1143=CARTESIAN_POINT('',(0.005,-0.0375,0.008));
#1144=CARTESIAN_POINT('',(0.005,-0.0622996789718856,0.008));
#1145=CARTESIAN_POINT('',(0.,3.82702124733548E-18,0.008));
#1146=CARTESIAN_POINT('',(-0.005,-0.0622996789718856,0.008));
#1147=CARTESIAN_POINT('',(-0.005,-0.0375,0.008));
#1148=CARTESIAN_POINT('',(1.38777878078145E-17,0.07,0.01));
#1149=CARTESIAN_POINT('',(1.38777878078145E-17,0.07,0.));
#1150=CARTESIAN_POINT('',(-0.07,0.07,0.));
#1151=CARTESIAN_POINT('',(0.07,0.07,0.));
#1152=CARTESIAN_POINT('',(-0.07,0.07,0.01));
#1153=CARTESIAN_POINT('',(-0.07,0.07,0.01));
#1154=CARTESIAN_POINT('',(1.38777878078145E-17,0.07,0.01));
#1155=CARTESIAN_POINT('',(0.07,0.07,0.01));
#1156=CARTESIAN_POINT('',(0.07,0.07,0.01));
#1157=CARTESIAN_POINT('',(-0.07,-1.38777878078145E-17,0.01));
#1158=CARTESIAN_POINT('',(-0.07,-1.38777878078145E-17,0.));
#1159=CARTESIAN_POINT('',(-0.07,-0.07,0.));
#1160=CARTESIAN_POINT('',(-0.07,-0.07,0.01));
#1161=CARTESIAN_POINT('',(-0.07,-0.07,0.01));
#1162=CARTESIAN_POINT('',(-0.07,-1.38777878078145E-17,0.01));
#1163=CARTESIAN_POINT('',(-1.38777878078145E-17,-0.07,0.01));
#1164=CARTESIAN_POINT('',(-1.38777878078145E-17,-0.07,0.));
#1165=CARTESIAN_POINT('',(0.07,-0.07,0.));
#1166=CARTESIAN_POINT('',(0.07,-0.07,0.01));
#1167=CARTESIAN_POINT('',(0.07,-0.07,0.01));
#1168=CARTESIAN_POINT('',(-1.38777878078145E-17,-0.07,0.01));
#1169=CARTESIAN_POINT('',(0.,3.82702124733548E-18,0.01));
#1170=CARTESIAN_POINT('',(0.005,0.0622996789718856,0.008));
#1171=CARTESIAN_POINT('',(0.005,0.0622996789718856,0.01));
#1172=CARTESIAN_POINT('',(-0.005,0.0622996789718856,0.008));
#1173=CARTESIAN_POINT('',(-0.005,0.0622996789718856,0.01));
#1174=CARTESIAN_POINT('',(0.,3.82702124733548E-18,0.01));
#1175=CARTESIAN_POINT('',(-0.0622996789718856,0.005,0.01));
#1176=CARTESIAN_POINT('',(-0.0622996789718856,0.005,0.008));
#1177=CARTESIAN_POINT('',(-0.0622996789718856,-0.005,0.008));
#1178=CARTESIAN_POINT('',(-0.0622996789718856,-0.005,0.01));
#1179=CARTESIAN_POINT('',(0.,3.82702124733548E-18,0.01));
#1180=CARTESIAN_POINT('',(-0.005,-0.0622996789718856,0.01));
#1181=CARTESIAN_POINT('',(-0.005,-0.0622996789718856,0.008));
#1182=CARTESIAN_POINT('',(0.005,-0.0622996789718856,0.008));
#1183=CARTESIAN_POINT('',(0.005,-0.0622996789718856,0.01));
#1184=CARTESIAN_POINT('',(0.,3.82702124733548E-18,0.01));
#1185=CARTESIAN_POINT('',(0.0622996789718856,-0.005,0.01));
#1186=CARTESIAN_POINT('',(0.0622996789718856,-0.005,0.008));
#1187=CARTESIAN_POINT('',(0.0622996789718856,-0.005,0.008));
#1188=CARTESIAN_POINT('',(0.,3.82702124733548E-18,0.008));
#1189=CARTESIAN_POINT('',(0.0622996789718856,0.005,0.008));
#1190=CARTESIAN_POINT('',(0.0622996789718856,0.005,0.008));
#1191=CARTESIAN_POINT('',(0.0622996789718856,0.005,0.01));
#1192=CARTESIAN_POINT('',(0.,3.82702124733548E-18,0.01));
#1193=CARTESIAN_POINT('',(0.,3.82702124733548E-18,0.));
#1194=CARTESIAN_POINT('',(0.0625,3.82702124733548E-18,0.));
#1195=CARTESIAN_POINT('',(0.07,-1.38777878078145E-17,0.01));
#1196=CARTESIAN_POINT('',(0.07,-1.38777878078145E-17,0.));
#1197=CARTESIAN_POINT('',(0.07,-1.38777878078145E-17,0.01));
#1198=CARTESIAN_POINT('',(0.,0.,0.01));
#1199=CARTESIAN_POINT('',(-0.005,0.0375,0.01));
#1200=CARTESIAN_POINT('',(-0.005,0.005,0.01));
#1201=CARTESIAN_POINT('',(-0.0375,0.005,0.01));
#1202=CARTESIAN_POINT('',(-0.0375,-0.005,0.01));
#1203=CARTESIAN_POINT('',(-0.005,-0.005,0.01));
#1204=CARTESIAN_POINT('',(-0.005,-0.0375,0.01));
#1205=CARTESIAN_POINT('',(0.005,-0.0375,0.01));
#1206=CARTESIAN_POINT('',(0.005,-0.005,0.01));
#1207=CARTESIAN_POINT('',(0.0375,-0.005,0.01));
#1208=CARTESIAN_POINT('',(0.0375,0.005,0.01));
#1209=CARTESIAN_POINT('',(0.005,0.005,0.01));
#1210=CARTESIAN_POINT('',(0.005,0.0375,0.01));
#1211=CARTESIAN_POINT('',(0.,0.,0.));
#1212=CARTESIAN_POINT('',(0.0375,0.005,0.008));
#1213=CARTESIAN_POINT('',(0.0375,0.005,0.008));
#1214=CARTESIAN_POINT('',(0.059791303715507,0.005,0.008));
#1215=CARTESIAN_POINT('',(0.0375,0.005,0.008));
#1216=CARTESIAN_POINT('',(0.005,0.005,0.008));
#1217=CARTESIAN_POINT('',(0.005,0.005,0.008));
#1218=CARTESIAN_POINT('',(0.005,0.0375,0.008));
#1219=CARTESIAN_POINT('',(0.005,0.0375,0.008));
#1220=CARTESIAN_POINT('',(-0.005,0.0375,0.008));
#1221=CARTESIAN_POINT('',(-0.005,0.0375,0.008));
#1222=CARTESIAN_POINT('',(-0.005,0.005,0.008));
#1223=CARTESIAN_POINT('',(-0.005,0.005,0.008));
#1224=CARTESIAN_POINT('',(-0.0375,0.005,0.008));
#1225=CARTESIAN_POINT('',(-0.0375,0.005,0.008));
#1226=CARTESIAN_POINT('',(-0.0375,-0.005,0.008));
#1227=CARTESIAN_POINT('',(-0.0375,-0.005,0.008));
#1228=CARTESIAN_POINT('',(-0.005,-0.005,0.008));
#1229=CARTESIAN_POINT('',(-0.005,-0.005,0.008));
#1230=CARTESIAN_POINT('',(-0.005,-0.0375,0.008));
#1231=CARTESIAN_POINT('',(-0.005,-0.0375,0.008));
#1232=CARTESIAN_POINT('',(0.005,-0.0375,0.008));
#1233=CARTESIAN_POINT('',(0.005,-0.0375,0.008));
#1234=CARTESIAN_POINT('',(0.005,-0.005,0.008));
#1235=CARTESIAN_POINT('',(0.005,-0.005,0.008));
#1236=CARTESIAN_POINT('',(0.0375,-0.005,0.008));
#1237=CARTESIAN_POINT('',(0.0375,-0.005,0.008));
#1238=CARTESIAN_POINT('',(0.059791303715507,-0.005,0.008));
#1239=CARTESIAN_POINT('',(0.0375,-0.005,0.008));
#1240=CARTESIAN_POINT('',(0.,-1.38777878078145E-17,0.008));
#1241=CARTESIAN_POINT('',(1.04083408558608E-17,3.46944695195361E-18,0.008));
#1242=CARTESIAN_POINT('',(0.,0.,0.008));
#1243=CARTESIAN_POINT('',(0.0268115555091642,0.0224975663390289,0.008));
#1244=CARTESIAN_POINT('',(0.00766044443118978,0.0064278760968654,0.008));
#1245=CARTESIAN_POINT('',(0.0459626665871387,0.0385672565811924,0.008));
#1246=CARTESIAN_POINT('',(1.7347234759768E-18,-4.33680868994202E-19,0.008));
#1247=CARTESIAN_POINT('',(0.00642787609686539,0.00766044443118978,0.008));
#1248=CARTESIAN_POINT('',(0.0224975663390289,0.0268115555091642,0.008));
#1249=CARTESIAN_POINT('',(0.0385672565811924,0.0459626665871387,0.008));
#1250=CARTESIAN_POINT('',(-3.46944695195361E-18,0.,0.008));
#1251=CARTESIAN_POINT('',(1.04083408558608E-17,3.46944695195361E-18,0.008));
#1252=CARTESIAN_POINT('',(0.0268115555091642,-0.0224975663390289,0.003));
#1253=CARTESIAN_POINT('',(0.0268115555091642,-0.0224975663390289,0.008));
#1254=CARTESIAN_POINT('',(0.00766044443118978,-0.00642787609686539,0.008));
#1255=CARTESIAN_POINT('',(0.0459626665871386,-0.0385672565811924,0.008));
#1256=CARTESIAN_POINT('',(0.00766044443118978,-0.00642787609686539,0.003));
#1257=CARTESIAN_POINT('',(0.00766044443118978,-0.00642787609686539,0.003));
#1258=CARTESIAN_POINT('',(0.0268115555091642,-0.0224975663390289,0.003));
#1259=CARTESIAN_POINT('',(0.0459626665871386,-0.0385672565811924,0.003));
#1260=CARTESIAN_POINT('',(0.0459626665871386,-0.0385672565811924,0.003));
#1261=CARTESIAN_POINT('',(0.0268115555091642,0.0224975663390289,0.003));
#1262=CARTESIAN_POINT('',(0.0459626665871387,0.0385672565811924,0.003));
#1263=CARTESIAN_POINT('',(0.0459626665871387,0.0385672565811924,0.003));
#1264=CARTESIAN_POINT('',(0.0268115555091642,0.0224975663390289,0.003));
#1265=CARTESIAN_POINT('',(0.00766044443118978,0.0064278760968654,0.003));
#1266=CARTESIAN_POINT('',(0.00766044443118978,0.0064278760968654,0.003));
#1267=CARTESIAN_POINT('',(1.04083408558608E-17,3.46944695195361E-18,0.003));
#1268=CARTESIAN_POINT('',(1.04083408558608E-17,3.46944695195361E-18,0.008));
#1269=CARTESIAN_POINT('',(1.04083408558608E-17,3.46944695195361E-18,0.003));
#1270=CARTESIAN_POINT('',(0.,0.,0.003));
#1271=CARTESIAN_POINT('',(0.,-1.3010426069826E-18,0.003));
#1272=CARTESIAN_POINT('',(0.,0.,0.008));
#1273=CARTESIAN_POINT('',(-3.46944695195361E-18,3.46944695195361E-18,0.008));
#1274=CARTESIAN_POINT('',(0.0385672565811924,-0.0459626665871387,0.008));
#1275=CARTESIAN_POINT('',(0.0224975663390289,-0.0268115555091642,0.008));
#1276=CARTESIAN_POINT('',(0.00642787609686539,-0.00766044443118978,0.008));
#1277=CARTESIAN_POINT('',(1.7347234759768E-18,-4.33680868994202E-19,0.008));
#1278=CARTESIAN_POINT('',(0.0224975663390289,-0.0268115555091642,0.003));
#1279=CARTESIAN_POINT('',(0.0385672565811924,-0.0459626665871387,0.003));
#1280=CARTESIAN_POINT('',(0.0385672565811924,-0.0459626665871387,0.003));
#1281=CARTESIAN_POINT('',(0.0224975663390289,-0.0268115555091642,0.003));
#1282=CARTESIAN_POINT('',(0.00642787609686539,-0.00766044443118978,0.003));
#1283=CARTESIAN_POINT('',(0.00642787609686539,-0.00766044443118978,0.003));
#1284=CARTESIAN_POINT('',(-3.46944695195361E-18,3.46944695195361E-18,0.003));
#1285=CARTESIAN_POINT('',(-3.46944695195361E-18,3.46944695195361E-18,0.008));
#1286=CARTESIAN_POINT('',(-0.0385672565811924,-0.0459626665871387,0.008));
#1287=CARTESIAN_POINT('',(-0.0385672565811924,-0.0459626665871387,0.003));
#1288=CARTESIAN_POINT('',(-0.0385672565811924,-0.0459626665871387,0.003));
#1289=CARTESIAN_POINT('',(-3.46944695195361E-18,3.46944695195361E-18,0.003));
#1290=CARTESIAN_POINT('',(-0.0224975663390289,-0.0268115555091642,0.003));
#1291=CARTESIAN_POINT('',(-0.0224975663390289,-0.0268115555091642,0.008));
#1292=CARTESIAN_POINT('',(-0.00642787609686539,-0.00766044443118978,0.008));
#1293=CARTESIAN_POINT('',(-0.00642787609686539,-0.00766044443118978,0.003));
#1294=CARTESIAN_POINT('',(-0.00642787609686539,-0.00766044443118978,0.003));
#1295=CARTESIAN_POINT('',(-0.0224975663390289,-0.0268115555091642,0.003));
#1296=CARTESIAN_POINT('',(0.,0.,0.003));
#1297=CARTESIAN_POINT('',(1.7347234759768E-18,-4.33680868994202E-19,0.003));
#1298=CARTESIAN_POINT('',(0.,0.,0.008));
#1299=CARTESIAN_POINT('',(0.,0.,0.008));
#1300=CARTESIAN_POINT('',(-0.0459626665871387,-0.0385672565811924,0.008));
#1301=CARTESIAN_POINT('',(-0.0268115555091642,-0.0224975663390289,0.008));
#1302=CARTESIAN_POINT('',(-0.00766044443118978,-0.00642787609686539,0.008));
#1303=CARTESIAN_POINT('',(1.7347234759768E-18,-4.33680868994202E-19,0.008));
#1304=CARTESIAN_POINT('',(0.,0.,0.008));
#1305=CARTESIAN_POINT('',(0.,0.,0.008));
#1306=CARTESIAN_POINT('',(-0.0459626665871387,0.0385672565811924,0.008));
#1307=CARTESIAN_POINT('',(-3.46944695195361E-18,0.,0.008));
#1308=CARTESIAN_POINT('',(-0.0385672565811924,0.0459626665871387,0.008));
#1309=CARTESIAN_POINT('',(-0.0224975663390289,0.0268115555091642,0.008));
#1310=CARTESIAN_POINT('',(-0.0064278760968654,0.00766044443118978,0.008));
#1311=CARTESIAN_POINT('',(1.7347234759768E-18,-4.33680868994202E-19,0.008));
#1312=CARTESIAN_POINT('',(-0.00766044443118978,0.00642787609686539,0.008));
#1313=CARTESIAN_POINT('',(-0.0268115555091642,0.0224975663390289,0.008));
#1314=CARTESIAN_POINT('',(-0.0268115555091642,0.0224975663390289,0.003));
#1315=CARTESIAN_POINT('',(-0.00766044443118978,0.00642787609686539,0.003));
#1316=CARTESIAN_POINT('',(-0.00766044443118978,0.00642787609686539,0.003));
#1317=CARTESIAN_POINT('',(-0.0268115555091642,0.0224975663390289,0.003));
#1318=CARTESIAN_POINT('',(-0.0459626665871387,0.0385672565811924,0.003));
#1319=CARTESIAN_POINT('',(-0.0459626665871387,0.0385672565811924,0.003));
#1320=CARTESIAN_POINT('',(-0.0268115555091642,-0.0224975663390289,0.003));
#1321=CARTESIAN_POINT('',(-0.0459626665871387,-0.0385672565811924,0.003));
#1322=CARTESIAN_POINT('',(-0.0459626665871387,-0.0385672565811924,0.003));
#1323=CARTESIAN_POINT('',(-0.0268115555091642,-0.0224975663390289,0.003));
#1324=CARTESIAN_POINT('',(-0.00766044443118978,-0.00642787609686539,0.003));
#1325=CARTESIAN_POINT('',(-0.00766044443118978,-0.00642787609686539,0.003));
#1326=CARTESIAN_POINT('',(0.,0.,0.003));
#1327=CARTESIAN_POINT('',(0.,0.,0.003));
#1328=CARTESIAN_POINT('',(0.,0.,0.003));
#1329=CARTESIAN_POINT('',(2.60208521396521E-18,4.33680868994202E-19,0.003));
#1330=CARTESIAN_POINT('',(-0.0224975663390289,0.0268115555091642,0.003));
#1331=CARTESIAN_POINT('',(-0.0385672565811924,0.0459626665871387,0.003));
#1332=CARTESIAN_POINT('',(-0.0385672565811924,0.0459626665871387,0.003));
#1333=CARTESIAN_POINT('',(-0.0224975663390289,0.0268115555091642,0.003));
#1334=CARTESIAN_POINT('',(-0.0064278760968654,0.00766044443118978,0.003));
#1335=CARTESIAN_POINT('',(-0.0064278760968654,0.00766044443118978,0.003));
#1336=CARTESIAN_POINT('',(-3.46944695195361E-18,0.,0.003));
#1337=CARTESIAN_POINT('',(0.0385672565811924,0.0459626665871387,0.003));
#1338=CARTESIAN_POINT('',(0.0385672565811924,0.0459626665871387,0.003));
#1339=CARTESIAN_POINT('',(-3.46944695195361E-18,0.,0.003));
#1340=CARTESIAN_POINT('',(0.0224975663390289,0.0268115555091642,0.003));
#1341=CARTESIAN_POINT('',(0.00642787609686539,0.00766044443118978,0.003));
#1342=CARTESIAN_POINT('',(0.0064278760968654,0.00766044443118978,0.003));
#1343=CARTESIAN_POINT('',(0.0224975663390289,0.0268115555091642,0.003));
#1344=CARTESIAN_POINT('',(0.,0.,0.003));
#1345=CARTESIAN_POINT('',(-8.67361737988404E-19,-4.33680868994202E-19,0.003));
#1346=CARTESIAN_POINT('',(1.7347234759768E-18,-4.33680868994202E-19,-0.002));
#1347=CARTESIAN_POINT('',(1.7347234759768E-18,-4.33680868994202E-19,-0.002));
#1348=CARTESIAN_POINT('',(-0.01,-4.33680868994202E-19,-0.002));
#1349=CARTESIAN_POINT('',(0.,0.,-0.002));
#1350=MECHANICAL_DESIGN_GEOMETRIC_PRESENTATION_REPRESENTATION('',(#801),#1351);
#1351=(
GEOMETRIC_REPRESENTATION_CONTEXT(3)
GLOBAL_UNCERTAINTY_ASSIGNED_CONTEXT((#1352))
GLOBAL_UNIT_ASSIGNED_CONTEXT((#1355,#1354,#1353))
REPRESENTATION_CONTEXT('Part 1','TOP_LEVEL_ASSEMBLY_PART')
);
#1352=UNCERTAINTY_MEASURE_WITH_UNIT(LENGTH_MEASURE(1.E-08),#1355,'DISTANCE_ACCURACY_VALUE','Maximum Tolerance applied to model');
#1353=(
NAMED_UNIT(*)
SI_UNIT($,.STERADIAN.)
SOLID_ANGLE_UNIT()
);
#1354=(
NAMED_UNIT(*)
PLANE_ANGLE_UNIT()
SI_UNIT($,.RADIAN.)
);
#1355=(
LENGTH_UNIT()
NAMED_UNIT(*)
SI_UNIT($,.METRE.)
);
#1356=PRODUCT_DEFINITION_SHAPE('','',#1357);
#1357=PRODUCT_DEFINITION('','',#1359,#1358);
#1358=PRODUCT_DEFINITION_CONTEXT('',#1365,'design');
#1359=PRODUCT_DEFINITION_FORMATION_WITH_SPECIFIED_SOURCE('','',#1361,.NOT_KNOWN.);
#1360=PRODUCT_RELATED_PRODUCT_CATEGORY('','',(#1361));
#1361=PRODUCT('Part 1','Part 1','Part 1',(#1363));
#1362=PRODUCT_CATEGORY('','');
#1363=PRODUCT_CONTEXT('',#1365,'mechanical');
#1364=APPLICATION_PROTOCOL_DEFINITION('international standard','ap242_managed_model_based_3d_engineering',2020,#1365);
#1365=APPLICATION_CONTEXT('managed model based 3d engineering');
ENDSEC;
END-ISO-10303-21;
