ISO-10303-21;
HEADER;
/* Generated by software containing ST-Developer
 * from STEP Tools, Inc. (www.steptools.com) 
 */
/* OPTION: using custom renumber hook */

FILE_DESCRIPTION(
/* description */ ('STEP AP242 Edition 2',
'CAx-IF Rec.Pracs.---Representation and Presentation of Product Manufa
cturing Information (PMI)---4.0---2014-10-13',
'CAx-IF Rec.Pracs.---3D Tessellated Geometry---0.4---2014-09-14','2;1',
'CAx-IF Rec.Pracs.---User Defined Attributes---1.5---2016-08-15'),
/* implementation_level */ '2;1');

FILE_NAME(
/* name */ '6994780325f9cfcd8cb49301',
/* time_stamp */ '2026-02-17T14:15:32Z',
/* author */ (''),
/* organization */ (''),
/* preprocessor_version */ 'ST-DEVELOPER v20',
/* originating_system */ 'ONSHAPE BY PTC INC, 1.210',
/* authorisation */ '  ');

FILE_SCHEMA (('AP242_MANAGED_MODEL_BASED_3D_ENGINEERING_MIM_LF { 1 0 10303 442 3 1 4 }'));
ENDSEC;

DATA;
#10=SHAPE_REPRESENTATION_RELATIONSHIP('','',#157,#11);
#11=ADVANCED_BREP_SHAPE_REPRESENTATION('',(#155),#290);
#12=PLANE('',#162);
#13=PLANE('',#166);
#14=PLANE('',#167);
#15=PLANE('',#171);
#16=PLANE('',#175);
#17=PLANE('',#180);
#18=B_SPLINE_CURVE_WITH_KNOTS('',3,(#236,#237,#238,#239,#240,#241,#242,
#243,#244,#245,#246,#247),.UNSPECIFIED.,.T.,.F.,(1,1,1,1,1,1,1,1,1,1,1,
1,1,1,1,1),(-0.00628744352609317,-0.00314372176304658,-0.00157186088152329,
0.,0.00314372176304658,0.00628744352609316,0.00943116528913975,0.0125748870521863,
0.0157186088152329,0.0188623305782795,0.0220060523413261,0.0235779132228494,
0.0251497741043727,0.0282934958674192,0.0314372176304658,0.0345809393935124),
 .UNSPECIFIED.);
#19=B_SPLINE_CURVE_WITH_KNOTS('',3,(#272,#273,#274,#275,#276,#277,#278,
#279,#280,#281,#282),.UNSPECIFIED.,.T.,.F.,(1,1,1,1,1,1,1,1,1,1,1,1,1,1,
1),(-0.00705563302189073,-0.00470375534792716,-0.00235187767396358,0.,0.00235187767396358,
0.00470375534792716,0.00705563302189073,0.00940751069585431,0.0117593883698179,
0.0141112660437815,0.016463143717745,0.0188150213917086,0.0211668990656722,
0.0235187767396358,0.0258706544135994),.UNSPECIFIED.);
#20=ORIENTED_EDGE('',*,*,#44,.F.);
#21=ORIENTED_EDGE('',*,*,#45,.T.);
#22=ORIENTED_EDGE('',*,*,#46,.F.);
#23=ORIENTED_EDGE('',*,*,#47,.F.);
#24=ORIENTED_EDGE('',*,*,#48,.F.);
#25=ORIENTED_EDGE('',*,*,#47,.T.);
#26=ORIENTED_EDGE('',*,*,#45,.F.);
#27=ORIENTED_EDGE('',*,*,#48,.T.);
#28=ORIENTED_EDGE('',*,*,#49,.F.);
#29=ORIENTED_EDGE('',*,*,#44,.T.);
#30=ORIENTED_EDGE('',*,*,#50,.F.);
#31=ORIENTED_EDGE('',*,*,#49,.T.);
#32=ORIENTED_EDGE('',*,*,#51,.F.);
#33=ORIENTED_EDGE('',*,*,#50,.T.);
#34=ORIENTED_EDGE('',*,*,#52,.F.);
#35=ORIENTED_EDGE('',*,*,#51,.T.);
#36=ORIENTED_EDGE('',*,*,#52,.T.);
#37=ORIENTED_EDGE('',*,*,#53,.T.);
#38=ORIENTED_EDGE('',*,*,#54,.F.);
#39=ORIENTED_EDGE('',*,*,#55,.F.);
#40=ORIENTED_EDGE('',*,*,#46,.T.);
#41=ORIENTED_EDGE('',*,*,#53,.F.);
#42=ORIENTED_EDGE('',*,*,#55,.T.);
#43=ORIENTED_EDGE('',*,*,#54,.T.);
#44=EDGE_CURVE('',#56,#56,#68,.T.);
#45=EDGE_CURVE('',#57,#57,#69,.T.);
#46=EDGE_CURVE('',#58,#58,#18,.T.);
#47=EDGE_CURVE('',#59,#59,#70,.T.);
#48=EDGE_CURVE('',#60,#60,#71,.T.);
#49=EDGE_CURVE('',#61,#61,#72,.T.);
#50=EDGE_CURVE('',#62,#62,#73,.T.);
#51=EDGE_CURVE('',#63,#63,#74,.T.);
#52=EDGE_CURVE('',#64,#64,#75,.T.);
#53=EDGE_CURVE('',#65,#65,#76,.T.);
#54=EDGE_CURVE('',#66,#66,#19,.T.);
#55=EDGE_CURVE('',#67,#67,#77,.T.);
#56=VERTEX_POINT('',#233);
#57=VERTEX_POINT('',#235);
#58=VERTEX_POINT('',#248);
#59=VERTEX_POINT('',#251);
#60=VERTEX_POINT('',#254);
#61=VERTEX_POINT('',#258);
#62=VERTEX_POINT('',#261);
#63=VERTEX_POINT('',#264);
#64=VERTEX_POINT('',#267);
#65=VERTEX_POINT('',#271);
#66=VERTEX_POINT('',#283);
#67=VERTEX_POINT('',#286);
#68=CIRCLE('',#160,0.0135);
#69=CIRCLE('',#161,0.0135);
#70=CIRCLE('',#163,0.01225);
#71=CIRCLE('',#165,0.01225);
#72=CIRCLE('',#168,0.004);
#73=CIRCLE('',#170,0.004);
#74=CIRCLE('',#172,0.003);
#75=CIRCLE('',#174,0.003);
#76=CIRCLE('',#177,0.003);
#77=CIRCLE('',#179,0.004);
#78=EDGE_LOOP('',(#20));
#79=EDGE_LOOP('',(#21));
#80=EDGE_LOOP('',(#22));
#81=EDGE_LOOP('',(#23));
#82=EDGE_LOOP('',(#24));
#83=EDGE_LOOP('',(#25));
#84=EDGE_LOOP('',(#26));
#85=EDGE_LOOP('',(#27));
#86=EDGE_LOOP('',(#28));
#87=EDGE_LOOP('',(#29));
#88=EDGE_LOOP('',(#30));
#89=EDGE_LOOP('',(#31));
#90=EDGE_LOOP('',(#32));
#91=EDGE_LOOP('',(#33));
#92=EDGE_LOOP('',(#34));
#93=EDGE_LOOP('',(#35));
#94=EDGE_LOOP('',(#36));
#95=EDGE_LOOP('',(#37));
#96=EDGE_LOOP('',(#38));
#97=EDGE_LOOP('',(#39));
#98=EDGE_LOOP('',(#40));
#99=EDGE_LOOP('',(#41));
#100=EDGE_LOOP('',(#42));
#101=EDGE_LOOP('',(#43));
#102=FACE_BOUND('',#78,.T.);
#103=FACE_BOUND('',#79,.T.);
#104=FACE_BOUND('',#80,.T.);
#105=FACE_BOUND('',#81,.T.);
#106=FACE_BOUND('',#82,.T.);
#107=FACE_BOUND('',#83,.T.);
#108=FACE_BOUND('',#84,.T.);
#109=FACE_BOUND('',#85,.T.);
#110=FACE_BOUND('',#86,.T.);
#111=FACE_BOUND('',#87,.T.);
#112=FACE_BOUND('',#88,.T.);
#113=FACE_BOUND('',#89,.T.);
#114=FACE_BOUND('',#90,.T.);
#115=FACE_BOUND('',#91,.T.);
#116=FACE_BOUND('',#92,.T.);
#117=FACE_BOUND('',#93,.T.);
#118=FACE_BOUND('',#94,.T.);
#119=FACE_BOUND('',#95,.T.);
#120=FACE_BOUND('',#96,.T.);
#121=FACE_BOUND('',#97,.T.);
#122=FACE_BOUND('',#98,.T.);
#123=FACE_BOUND('',#99,.T.);
#124=FACE_BOUND('',#100,.T.);
#125=FACE_BOUND('',#101,.T.);
#126=CYLINDRICAL_SURFACE('',#159,0.0135);
#127=CYLINDRICAL_SURFACE('',#164,0.01225);
#128=CYLINDRICAL_SURFACE('',#169,0.004);
#129=CYLINDRICAL_SURFACE('',#173,0.003);
#130=CYLINDRICAL_SURFACE('',#176,0.003);
#131=CYLINDRICAL_SURFACE('',#178,0.004);
#132=CYLINDRICAL_SURFACE('',#181,0.0135);
#133=ADVANCED_FACE('',(#102,#103,#104),#126,.T.);
#134=ADVANCED_FACE('',(#105),#12,.F.);
#135=ADVANCED_FACE('',(#106,#107),#127,.T.);
#136=ADVANCED_FACE('',(#108,#109),#13,.F.);
#137=ADVANCED_FACE('',(#110,#111),#14,.F.);
#138=ADVANCED_FACE('',(#112,#113),#128,.T.);
#139=ADVANCED_FACE('',(#114,#115),#15,.F.);
#140=ADVANCED_FACE('',(#116,#117),#129,.F.);
#141=ADVANCED_FACE('',(#118),#16,.F.);
#142=ADVANCED_FACE('',(#119,#120),#130,.F.);
#143=ADVANCED_FACE('',(#121,#122),#131,.T.);
#144=ADVANCED_FACE('',(#123,#124),#17,.T.);
#145=ADVANCED_FACE('',(#125),#132,.T.);
#146=CLOSED_SHELL('',(#133,#134,#135,#136,#137,#138,#139,#140,#141,#142,
#143,#144,#145));
#147=STYLED_ITEM('',(#148),#155);
#148=PRESENTATION_STYLE_ASSIGNMENT((#149));
#149=SURFACE_STYLE_USAGE(.BOTH.,#150);
#150=SURFACE_SIDE_STYLE('',(#151));
#151=SURFACE_STYLE_FILL_AREA(#152);
#152=FILL_AREA_STYLE('',(#153));
#153=FILL_AREA_STYLE_COLOUR('',#154);
#154=COLOUR_RGB('',0.615686274509804,0.811764705882353,0.929411764705882);
#155=MANIFOLD_SOLID_BREP('Part 1',#146);
#156=SHAPE_DEFINITION_REPRESENTATION(#295,#157);
#157=SHAPE_REPRESENTATION('Part 1',(#158),#290);
#158=AXIS2_PLACEMENT_3D('',#230,#182,#183);
#159=AXIS2_PLACEMENT_3D('',#231,#184,#185);
#160=AXIS2_PLACEMENT_3D('',#232,#186,#187);
#161=AXIS2_PLACEMENT_3D('',#234,#188,#189);
#162=AXIS2_PLACEMENT_3D('',#249,#190,#191);
#163=AXIS2_PLACEMENT_3D('',#250,#192,#193);
#164=AXIS2_PLACEMENT_3D('',#252,#194,#195);
#165=AXIS2_PLACEMENT_3D('',#253,#196,#197);
#166=AXIS2_PLACEMENT_3D('',#255,#198,#199);
#167=AXIS2_PLACEMENT_3D('',#256,#200,#201);
#168=AXIS2_PLACEMENT_3D('',#257,#202,#203);
#169=AXIS2_PLACEMENT_3D('',#259,#204,#205);
#170=AXIS2_PLACEMENT_3D('',#260,#206,#207);
#171=AXIS2_PLACEMENT_3D('',#262,#208,#209);
#172=AXIS2_PLACEMENT_3D('',#263,#210,#211);
#173=AXIS2_PLACEMENT_3D('',#265,#212,#213);
#174=AXIS2_PLACEMENT_3D('',#266,#214,#215);
#175=AXIS2_PLACEMENT_3D('',#268,#216,#217);
#176=AXIS2_PLACEMENT_3D('',#269,#218,#219);
#177=AXIS2_PLACEMENT_3D('',#270,#220,#221);
#178=AXIS2_PLACEMENT_3D('',#284,#222,#223);
#179=AXIS2_PLACEMENT_3D('',#285,#224,#225);
#180=AXIS2_PLACEMENT_3D('',#287,#226,#227);
#181=AXIS2_PLACEMENT_3D('',#288,#228,#229);
#182=DIRECTION('',(0.,0.,1.));
#183=DIRECTION('',(1.,0.,0.));
#184=DIRECTION('',(-1.,0.,0.));
#185=DIRECTION('',(0.,0.,1.));
#186=DIRECTION('',(-1.,0.,0.));
#187=DIRECTION('',(0.,0.,1.));
#188=DIRECTION('',(-1.,0.,0.));
#189=DIRECTION('',(0.,0.,1.));
#190=DIRECTION('',(-1.,0.,0.));
#191=DIRECTION('',(0.,0.,1.));
#192=DIRECTION('',(-1.,0.,0.));
#193=DIRECTION('',(0.,0.,1.));
#194=DIRECTION('',(-1.,0.,0.));
#195=DIRECTION('',(0.,0.,1.));
#196=DIRECTION('',(-1.,0.,0.));
#197=DIRECTION('',(0.,0.,1.));
#198=DIRECTION('',(-1.,0.,0.));
#199=DIRECTION('',(0.,0.,1.));
#200=DIRECTION('',(1.,0.,0.));
#201=DIRECTION('',(0.,0.,-1.));
#202=DIRECTION('',(-1.,0.,0.));
#203=DIRECTION('',(0.,0.,1.));
#204=DIRECTION('',(-1.,0.,0.));
#205=DIRECTION('',(0.,0.,1.));
#206=DIRECTION('',(-1.,0.,0.));
#207=DIRECTION('',(0.,0.,1.));
#208=DIRECTION('',(1.,0.,0.));
#209=DIRECTION('',(0.,0.,-1.));
#210=DIRECTION('',(-1.,0.,0.));
#211=DIRECTION('',(0.,0.,1.));
#212=DIRECTION('',(-1.,0.,0.));
#213=DIRECTION('',(0.,0.,1.));
#214=DIRECTION('',(-1.,0.,0.));
#215=DIRECTION('',(0.,0.,1.));
#216=DIRECTION('',(1.,0.,0.));
#217=DIRECTION('',(0.,0.,-1.));
#218=DIRECTION('',(0.,1.,0.));
#219=DIRECTION('',(0.,0.,1.));
#220=DIRECTION('',(0.,-1.,0.));
#221=DIRECTION('',(0.,0.,-1.));
#222=DIRECTION('',(0.,1.,0.));
#223=DIRECTION('',(0.,0.,1.));
#224=DIRECTION('',(0.,-1.,0.));
#225=DIRECTION('',(0.,0.,-1.));
#226=DIRECTION('',(0.,-1.,0.));
#227=DIRECTION('',(1.,0.,0.));
#228=DIRECTION('',(-1.,0.,0.));
#229=DIRECTION('',(0.,0.,1.));
#230=CARTESIAN_POINT('',(0.,0.,0.));
#231=CARTESIAN_POINT('',(-0.0339788558408618,0.,0.));
#232=CARTESIAN_POINT('',(-0.0665,0.,0.));
#233=CARTESIAN_POINT('',(-0.0665,0.,0.0135));
#234=CARTESIAN_POINT('',(-0.0308,0.,0.));
#235=CARTESIAN_POINT('',(-0.0308,0.,0.0135));
#236=CARTESIAN_POINT('',(-0.0599174171216494,-0.0129629912019744,0.00378560587991969));
#237=CARTESIAN_POINT('',(-0.0620312300720853,-0.0128210751303014,0.00421543828329448));
#238=CARTESIAN_POINT('',(-0.064631843742985,-0.0132023221908294,0.00313302605075129));
#239=CARTESIAN_POINT('',(-0.0659338080591894,-0.0136485284060243,4.81001921999703E-6));
#240=CARTESIAN_POINT('',(-0.0646329189543548,-0.0132035626840653,-0.00313667243331053));
#241=CARTESIAN_POINT('',(-0.0615022657717165,-0.0127388908409175,-0.00443149566837502));
#242=CARTESIAN_POINT('',(-0.0583683796943523,-0.0132036563955399,-0.0031373426564067));
#243=CARTESIAN_POINT('',(-0.0570641989354265,-0.0136464972145749,-2.36137693593712E-7));
#244=CARTESIAN_POINT('',(-0.0581563878264775,-0.0132830449005886,0.00260931003168359));
#245=CARTESIAN_POINT('',(-0.0599174171216494,-0.0129629912019744,0.00378560587991969));
#246=CARTESIAN_POINT('',(-0.0620312300720853,-0.0128210751303014,0.00421543828329448));
#247=CARTESIAN_POINT('',(-0.064631843742985,-0.0132023221908294,0.00313302605075129));
#248=CARTESIAN_POINT('',(-0.0615,-0.0128937969582276,0.004));
#249=CARTESIAN_POINT('',(0.,0.,0.006125));
#250=CARTESIAN_POINT('',(0.,0.,0.));
#251=CARTESIAN_POINT('',(0.,0.,0.01225));
#252=CARTESIAN_POINT('',(-0.0339788558408618,0.,0.));
#253=CARTESIAN_POINT('',(-0.0308,0.,0.));
#254=CARTESIAN_POINT('',(-0.0308,0.,0.01225));
#255=CARTESIAN_POINT('',(-0.0308,0.,0.012875));
#256=CARTESIAN_POINT('',(-0.0665,0.,0.00875));
#257=CARTESIAN_POINT('',(-0.0665,0.,0.));
#258=CARTESIAN_POINT('',(-0.0665,0.,0.004));
#259=CARTESIAN_POINT('',(-0.0339788558408618,0.,0.));
#260=CARTESIAN_POINT('',(-0.0806,0.,0.));
#261=CARTESIAN_POINT('',(-0.0806,0.,0.004));
#262=CARTESIAN_POINT('',(-0.0806,0.,0.0035));
#263=CARTESIAN_POINT('',(-0.0806,0.,0.));
#264=CARTESIAN_POINT('',(-0.0806,0.,0.003));
#265=CARTESIAN_POINT('',(-0.0339788558408618,0.,0.));
#266=CARTESIAN_POINT('',(-0.0665,0.,0.));
#267=CARTESIAN_POINT('',(-0.0665,0.,0.003));
#268=CARTESIAN_POINT('',(-0.0665,0.,0.0015));
#269=CARTESIAN_POINT('',(-0.0615,-0.026,1.83697019872103E-19));
#270=CARTESIAN_POINT('',(-0.0615,-0.026,1.83697019872103E-19));
#271=CARTESIAN_POINT('',(-0.0615,-0.026,-0.003));
#272=CARTESIAN_POINT('',(-0.0591469226396101,-0.0133337212804199,0.00234892007915655));
#273=CARTESIAN_POINT('',(-0.0615004911288983,-0.0130768751854747,0.00332540889928403));
#274=CARTESIAN_POINT('',(-0.0638511128447967,-0.0133334574642104,0.00234944432370733));
#275=CARTESIAN_POINT('',(-0.0648244879669989,-0.0135832847332911,3.22727473196042E-6));
#276=CARTESIAN_POINT('',(-0.0638509319881268,-0.0133334028694963,-0.00235145539987543));
#277=CARTESIAN_POINT('',(-0.0615012365397697,-0.0130770970626752,-0.00332379715463384));
#278=CARTESIAN_POINT('',(-0.0591516206770357,-0.0133328887223473,-0.00235335441957902));
#279=CARTESIAN_POINT('',(-0.0581753650498469,-0.013583347303973,-1.70407809213353E-6));
#280=CARTESIAN_POINT('',(-0.0591469226396101,-0.0133337212804199,0.00234892007915655));
#281=CARTESIAN_POINT('',(-0.0615004911288983,-0.0130768751854747,0.00332540889928403));
#282=CARTESIAN_POINT('',(-0.0638511128447967,-0.0133334574642104,0.00234944432370733));
#283=CARTESIAN_POINT('',(-0.0615,-0.0131624465810882,0.003));
#284=CARTESIAN_POINT('',(-0.0615,-0.026,2.4492935982947E-19));
#285=CARTESIAN_POINT('',(-0.0615,-0.026,2.4492935982947E-19));
#286=CARTESIAN_POINT('',(-0.0615,-0.026,-0.004));
#287=CARTESIAN_POINT('',(-0.0615,-0.026,0.));
#288=CARTESIAN_POINT('',(-0.0339788558408618,0.,0.));
#289=MECHANICAL_DESIGN_GEOMETRIC_PRESENTATION_REPRESENTATION('',(#147),
#290);
#290=(
GEOMETRIC_REPRESENTATION_CONTEXT(3)
GLOBAL_UNCERTAINTY_ASSIGNED_CONTEXT((#291))
GLOBAL_UNIT_ASSIGNED_CONTEXT((#294,#293,#292))
REPRESENTATION_CONTEXT('Part 1','TOP_LEVEL_ASSEMBLY_PART')
);
#291=UNCERTAINTY_MEASURE_WITH_UNIT(LENGTH_MEASURE(2.E-5),#294,
'DISTANCE_ACCURACY_VALUE','Maximum Tolerance applied to model');
#292=(
NAMED_UNIT(*)
SI_UNIT($,.STERADIAN.)
SOLID_ANGLE_UNIT()
);
#293=(
NAMED_UNIT(*)
PLANE_ANGLE_UNIT()
SI_UNIT($,.RADIAN.)
);
#294=(
LENGTH_UNIT()
NAMED_UNIT(*)
SI_UNIT($,.METRE.)
);
#295=PRODUCT_DEFINITION_SHAPE('','',#296);
#296=PRODUCT_DEFINITION('','',#298,#297);
#297=PRODUCT_DEFINITION_CONTEXT('',#304,'design');
#298=PRODUCT_DEFINITION_FORMATION_WITH_SPECIFIED_SOURCE('','',#300,
 .NOT_KNOWN.);
#299=PRODUCT_RELATED_PRODUCT_CATEGORY('','',(#300));
#300=PRODUCT('Part 1','Part 1','Part 1',(#302));
#301=PRODUCT_CATEGORY('','');
#302=PRODUCT_CONTEXT('',#304,'mechanical');
#303=APPLICATION_PROTOCOL_DEFINITION('international standard',
'ap242_managed_model_based_3d_engineering',2020,#304);
#304=APPLICATION_CONTEXT('managed model based 3d engineering');
ENDSEC;
END-ISO-10303-21;
